<svg width="102" height="86" viewBox="0 0 102 86" fill="none" xmlns="http://www.w3.org/2000/svg">
<path d="M24.24 65.96C12.288 65.96 2.88 55.4 2.88 41C2.88 26.6 12.288 16.04 24.24 16.04C35.232 16.04 38.976 21.752 38.976 26.12C38.976 36.104 25.392 39.656 25.392 45.368C25.392 46.856 25.872 47.672 26.832 48.488C24.24 49.064 22.656 46.232 22.656 44.024C22.656 35.576 36.144 32.744 36.144 25.736C36.144 20.024 32.256 16.616 24.24 16.616C14.304 16.616 7.2 26.984 7.2 41C7.2 55.016 14.976 65.384 24.24 65.384C34.896 65.384 37.92 57.32 37.92 57.32H38.448V63.752C34.608 65 30.384 65.96 24.24 65.96ZM41.3775 56.6C41.3775 44.792 60.5775 40.28 60.5775 35.288C60.5775 34.376 60.0495 33.992 59.4255 33.992C57.1215 33.992 55.6815 39.032 52.9455 39.032C51.6015 39.032 51.3615 37.736 51.8415 36.488C54.7695 28.76 56.5455 24.008 59.5695 16.04H60.0495L75.4095 56.6C77.5215 61.88 79.0575 64.52 81.9855 64.52V65H66.2415V64.52C73.0095 64.52 72.7695 60.632 70.9455 55.784L64.9935 40.088C65.1855 41.624 65.2815 43.544 65.2815 45.848C65.2815 57.512 59.6655 65.96 50.1135 65.96C44.5455 65.96 41.3775 61.592 41.3775 56.6ZM45.4575 55.688C45.4575 60.2 48.2895 63.656 52.9935 63.656C61.0095 63.656 64.8015 53.816 64.8015 45.944C64.8015 42.392 64.6575 39.752 63.7935 36.92L57.9855 21.608L52.4655 36.296C51.8415 37.976 52.2255 38.552 52.9935 38.552C55.2015 38.552 56.9775 33.512 59.5215 33.512C60.4335 33.512 61.1055 34.136 61.1055 35.384C61.1055 41.816 45.4575 43.832 45.4575 55.688Z" fill="#F5E9FF"/>
</svg>
