<svg width="242" height="193" viewBox="0 0 242 193" fill="none" xmlns="http://www.w3.org/2000/svg">
<path d="M53.6501 170.542L17.0176 150.467C25.4311 137.611 26.0705 130.275 27.5093 120.061C32.1283 87.3823 64.5288 66.5252 89.7274 49.3363C91.8496 47.8399 94.0485 46.4554 96.3152 45.1884C98.9991 43.7497 106.411 39.299 108.389 43.4132C110.265 47.3591 105.612 54.5443 103.29 57.4301C104.815 55.1442 106.502 52.9708 108.338 50.9265C108.911 50.1634 109.704 49.5939 110.61 49.2942C112.293 48.9072 113.925 50.5226 114.186 52.2306C114.446 53.9385 113.731 55.6465 112.94 57.1945C111.066 60.9068 108.722 64.3623 105.966 67.4759C107.817 65.3893 114.657 57.5311 114.514 65.4819C114.399 70.4928 112.309 75.2555 108.7 78.7332C110.268 77.347 111.957 76.1052 113.748 75.0228C114.001 74.8221 114.294 74.6765 114.607 74.5954C114.92 74.5143 115.246 74.4994 115.565 74.5517C115.903 74.7151 116.192 74.9628 116.406 75.2708C116.62 75.5789 116.75 75.9368 116.785 76.3101C117.93 81.4087 115.103 85.0518 113.151 89.41C111.645 92.7754 110.761 95.9978 108.835 99.2707C101.877 111.1 94.6325 119.312 86.6649 130.493C84.6961 133.371 53.7595 170.592 53.6501 170.542Z" fill="white"/>
<path d="M53.6079 170.962C53.5583 170.956 53.51 170.942 53.4649 170.92L16.8155 150.862C16.7654 150.834 16.7217 150.795 16.687 150.748C16.6523 150.702 16.6273 150.649 16.6136 150.593C16.5976 150.536 16.5946 150.477 16.6048 150.418C16.615 150.36 16.6381 150.305 16.6725 150.257C24.5644 138.225 25.574 130.956 26.8528 121.752L27.0968 120.027C31.5644 88.4256 62.0467 67.6862 86.5469 51.0358L89.4917 49.025C91.6234 47.5031 93.8367 46.0988 96.1215 44.8182L96.7105 44.4985C99.2345 43.1187 103.912 40.5609 106.807 41.5033C107.236 41.6367 107.631 41.8604 107.966 42.1594C108.301 42.4583 108.569 42.8256 108.75 43.2365C109.768 45.3651 109.045 48.2341 107.85 50.8086L108.035 50.5983C108.673 49.7638 109.555 49.1491 110.559 48.8399C110.962 48.756 111.378 48.7568 111.781 48.8423C112.183 48.9278 112.564 49.096 112.898 49.3363C113.363 49.6601 113.757 50.0744 114.058 50.5544C114.359 51.0344 114.56 51.5701 114.648 52.1296C114.926 53.9469 114.202 55.7053 113.369 57.346C112.42 59.2184 111.352 61.0282 110.172 62.7643C111.451 61.8136 112.646 61.2919 113.538 61.6537C114.429 62.0155 114.985 63.3448 114.985 65.4903C114.895 69.2253 113.726 72.8546 111.619 75.9399C112.25 75.5024 112.898 75.0985 113.563 74.6863C113.864 74.4515 114.212 74.2841 114.584 74.1956C114.956 74.107 115.342 74.0993 115.717 74.173C116.129 74.3524 116.487 74.6389 116.751 75.0028C117.016 75.3668 117.179 75.7948 117.223 76.2428C118.157 80.4495 116.55 83.5962 114.85 86.9616C114.413 87.803 114.009 88.7032 113.563 89.6119C113.033 90.7898 112.578 91.9761 112.132 93.1203C111.342 95.3267 110.369 97.4628 109.221 99.5062C104.594 107.381 99.8571 113.624 94.8427 120.246C92.3186 123.569 89.7104 126.976 87.0349 130.763C85.7476 132.571 73.4891 147.388 69.7619 151.889C65.7571 156.71 61.8195 161.455 58.8664 164.98C54.525 170.222 53.9024 170.962 53.6079 170.962ZM17.6232 150.341L53.5658 170.012C56.0899 166.983 84.0986 133.497 86.3786 130.275C89.0626 126.505 91.6792 123.064 94.2032 119.732C99.2009 113.136 103.929 106.91 108.506 99.0771C109.63 97.0709 110.584 94.9742 111.358 92.809C111.804 91.6564 112.267 90.4701 112.806 89.2669C113.209 88.3414 113.647 87.4496 114.101 86.583C115.733 83.3606 117.273 80.3149 116.407 76.4279C116.28 75.8558 116.011 75.1406 115.481 74.9807C115.218 74.948 114.951 74.9691 114.697 75.0429C114.442 75.1167 114.205 75.2415 114 75.4098C112.209 76.4751 110.519 77.7031 108.952 79.0781C108.874 79.1552 108.768 79.1984 108.658 79.1984C108.548 79.1984 108.442 79.1552 108.363 79.0781C108.288 78.9985 108.246 78.8932 108.246 78.7837C108.246 78.6742 108.288 78.5688 108.363 78.4892C110.136 76.8108 111.56 74.7981 112.552 72.5672C113.544 70.3363 114.085 67.9311 114.143 65.4903C114.143 63.7655 113.874 62.7306 113.302 62.4951C112.183 62.0575 109.869 63.8076 106.445 67.6862L106.378 67.7619C106.344 67.8114 106.3 67.8531 106.249 67.8842C106.198 67.9154 106.141 67.9352 106.081 67.9425C106.022 67.9498 105.962 67.9443 105.904 67.9265C105.847 67.9086 105.795 67.8788 105.75 67.8389C105.705 67.7991 105.67 67.7502 105.645 67.6955C105.621 67.6407 105.609 67.5815 105.609 67.5216C105.61 67.4618 105.623 67.4027 105.648 67.3484C105.673 67.2941 105.71 67.2458 105.755 67.2066C108.454 64.1324 110.752 60.7287 112.595 57.0767C113.361 55.5623 114.034 53.9469 113.79 52.3651C113.718 51.9203 113.557 51.4944 113.317 51.1128C113.077 50.7313 112.763 50.4018 112.393 50.144C112.155 49.966 111.882 49.8409 111.592 49.7771C111.302 49.7132 111.001 49.7121 110.711 49.7738C109.894 50.0553 109.181 50.5773 108.666 51.2714C107.589 52.4661 106.554 53.7029 105.578 54.9902C104.56 56.5551 103.702 57.6404 103.593 57.7666C103.525 57.8498 103.428 57.904 103.322 57.9181C103.215 57.9321 103.108 57.9051 103.021 57.8424C102.931 57.7781 102.87 57.6813 102.852 57.5727C102.833 57.4642 102.857 57.3525 102.92 57.2618C103.584 56.2774 104.274 55.3099 104.998 54.3676C107.185 51.0022 109.297 46.3999 107.993 43.6571C107.866 43.3462 107.673 43.0664 107.428 42.8369C107.182 42.6075 106.89 42.4338 106.571 42.3278C104.005 41.4864 99.3607 44.0105 97.1227 45.2557L96.5254 45.5838C94.2683 46.8395 92.0804 48.2157 89.9712 49.7065L87.0265 51.7089C62.6693 68.2836 32.3385 88.9136 27.9382 120.145L27.6942 121.827C26.4069 131.116 25.3889 138.368 17.6232 150.341Z" fill="#231F20"/>
<path d="M62.4001 191.845L67.6081 160.261C67.6081 160.261 18.9946 141.103 18.229 140.674C17.6232 140.354 0.451172 191.845 0.451172 191.845H62.4001Z" fill="#231F20"/>
<path d="M62.4001 192.266H0.417562C0.351028 192.265 0.285559 192.249 0.226532 192.218C0.167506 192.187 0.116605 192.143 0.0780089 192.089C0.0394132 192.035 0.0142224 191.972 0.00450786 191.906C-0.00520672 191.841 0.000831459 191.773 0.0221249 191.71C17.0427 140.682 17.7831 140.388 18.0271 140.287C18.0842 140.262 18.1458 140.249 18.208 140.249C18.2702 140.249 18.3318 140.262 18.3889 140.287C19.1798 140.682 51.0334 153.26 67.7595 159.857C67.8489 159.89 67.9238 159.954 67.9714 160.037C68.019 160.12 68.0363 160.217 68.0204 160.311L62.8208 191.912C62.8047 192.012 62.7533 192.102 62.6761 192.167C62.5989 192.232 62.5009 192.267 62.4001 192.266ZM0.981268 191.424H62.0131L67.1369 160.563C62.7871 158.881 22.6041 143.004 18.3384 141.212C16.8997 144.249 7.38397 172.292 1.00651 191.424H0.981268Z" fill="#231F20"/>
<path d="M99.8165 1.63138L30.6895 22.6338C27.7241 23.5347 26.0505 26.6691 26.9514 29.6346L64.9866 154.823C65.8876 157.789 69.022 159.462 71.9875 158.561L141.114 137.559C144.08 136.658 145.754 133.523 144.853 130.558L106.817 5.36949C105.916 2.40401 102.782 0.730402 99.8165 1.63138Z" fill="#231F20"/>
<path d="M70.3929 159.234C69.0988 159.234 67.839 158.817 66.7997 158.046C65.7604 157.275 64.9966 156.19 64.6212 154.952L26.5499 29.7664C26.3125 29.0058 26.2281 28.2057 26.3016 27.4123C26.3751 26.6189 26.6051 25.8479 26.9782 25.1438C27.3514 24.4398 27.8603 23.8166 28.4756 23.3104C29.0909 22.8041 29.8005 22.4248 30.5632 22.1943L99.6973 1.16041C100.455 0.929457 101.25 0.850085 102.038 0.926832C102.826 1.00358 103.592 1.23494 104.29 1.60768C104.989 1.98042 105.607 2.48722 106.11 3.09911C106.612 3.71099 106.989 4.41596 107.219 5.17367L145.273 130.451C145.737 131.982 145.574 133.634 144.82 135.045C144.066 136.455 142.782 137.509 141.252 137.973L72.1261 159.007C71.5625 159.167 70.9786 159.243 70.3929 159.234ZM101.523 1.81666C101.01 1.81735 100.499 1.8939 100.009 2.04383L30.8493 23.044C30.1967 23.2422 29.5896 23.567 29.0626 23.9998C28.5357 24.4327 28.0991 24.9651 27.778 25.5668C27.4569 26.1684 27.2574 26.8274 27.1911 27.5061C27.1247 28.1849 27.1928 28.87 27.3913 29.5225L65.3448 154.674C65.7469 155.99 66.6547 157.094 67.8692 157.742C69.0836 158.39 70.5056 158.53 71.8232 158.132L140.949 137.098C142.254 136.702 143.351 135.809 144.003 134.611C144.655 133.413 144.809 132.006 144.432 130.695L106.42 5.50179C106.096 4.43719 105.438 3.50467 104.545 2.84133C103.651 2.17799 102.569 1.81883 101.456 1.81666H101.523Z" fill="#231F20"/>
<path d="M33.0105 33.9048L104.488 12.1882L136.898 118.861L65.4203 140.578L33.0105 33.9048Z" fill="white"/>
<path d="M65.4122 141.002C65.3444 141.002 65.2777 140.985 65.2187 140.951C65.1688 140.927 65.1243 140.893 65.0881 140.851C65.052 140.809 65.0248 140.76 65.0084 140.707L32.6078 34.032C32.585 33.9818 32.5732 33.9273 32.5732 33.8722C32.5732 33.817 32.585 33.7625 32.6078 33.7123C32.6331 33.6642 32.6678 33.6216 32.7096 33.587C32.7515 33.5523 32.7998 33.5263 32.8518 33.5104L104.367 11.795C104.473 11.7635 104.587 11.7749 104.685 11.8269C104.782 11.8788 104.856 11.9671 104.889 12.0727L137.297 118.748C137.314 118.802 137.32 118.858 137.315 118.914C137.309 118.97 137.293 119.024 137.266 119.073C137.24 119.123 137.203 119.166 137.159 119.201C137.116 119.237 137.065 119.263 137.011 119.278L65.4963 140.985C65.4691 140.994 65.4409 141 65.4122 141.002ZM33.5333 34.1919L65.6898 140.059L136.364 118.588L104.207 12.7205L33.5333 34.1919Z" fill="#231F20"/>
<path d="M98.5699 145.057C97.902 145.056 97.2519 144.842 96.7145 144.446C96.1771 144.049 95.7806 143.491 95.5831 142.853L94.5819 139.529C94.343 138.739 94.4266 137.887 94.8145 137.159C95.2023 136.43 95.8629 135.885 96.6517 135.642L109.693 131.688C110.084 131.567 110.495 131.525 110.902 131.564C111.31 131.603 111.705 131.722 112.067 131.914C112.428 132.107 112.748 132.369 113.007 132.685C113.267 133.001 113.461 133.366 113.58 133.758L114.581 137.123C114.702 137.514 114.744 137.925 114.705 138.333C114.666 138.74 114.547 139.136 114.354 139.497C114.162 139.858 113.9 140.178 113.584 140.438C113.268 140.697 112.903 140.892 112.511 141.01L99.4702 144.965C99.1764 145.04 98.873 145.071 98.5699 145.057ZM110.601 132.386C110.376 132.386 110.152 132.42 109.937 132.487L96.8956 136.45C96.3199 136.627 95.8375 137.024 95.5538 137.555C95.27 138.087 95.208 138.709 95.3812 139.285L96.3908 142.609C96.5676 143.184 96.965 143.667 97.4962 143.951C98.0275 144.234 98.6494 144.296 99.2262 144.123L112.267 140.16C112.554 140.075 112.82 139.933 113.051 139.744C113.283 139.555 113.474 139.322 113.615 139.058C113.756 138.795 113.843 138.506 113.872 138.208C113.9 137.911 113.87 137.611 113.782 137.325L112.772 134.002C112.631 133.535 112.344 133.126 111.953 132.836C111.563 132.545 111.089 132.387 110.601 132.386Z" fill="#D1D3D4"/>
<path d="M51.084 23.4732C50.9941 23.4737 50.9063 23.4454 50.8336 23.3924C50.7609 23.3394 50.7071 23.2645 50.6802 23.1787C50.6483 23.0716 50.6595 22.9563 50.7113 22.8573C50.7632 22.7583 50.8516 22.6835 50.9578 22.6487L73.5902 15.7748C73.7018 15.7413 73.8221 15.7536 73.9247 15.8088C74.0272 15.864 74.1036 15.9577 74.1371 16.0693C74.1706 16.1809 74.1584 16.3012 74.1031 16.4037C74.0479 16.5063 73.9542 16.5827 73.8426 16.6162L51.2018 23.4227L51.084 23.4732Z" fill="#D1D3D4"/>
<path d="M76.8884 15.6317C76.7987 15.6309 76.7116 15.6021 76.6391 15.5493C76.5667 15.4965 76.5126 15.4223 76.4845 15.3372C76.4678 15.2836 76.4619 15.2273 76.4673 15.1714C76.4726 15.1155 76.4891 15.0613 76.5158 15.0119C76.5425 14.9625 76.5787 14.9189 76.6225 14.8838C76.6662 14.8486 76.7166 14.8226 76.7706 14.8072L79.8079 13.8901C79.8622 13.8663 79.921 13.8543 79.9804 13.8548C80.0397 13.8554 80.0983 13.8685 80.1522 13.8933C80.2061 13.9181 80.2542 13.9541 80.2932 13.9988C80.3323 14.0435 80.3614 14.0959 80.3788 14.1527C80.3961 14.2095 80.4012 14.2692 80.3938 14.3281C80.3864 14.387 80.3666 14.4437 80.3357 14.4944C80.3048 14.545 80.2636 14.5886 80.2146 14.6222C80.1657 14.6558 80.1102 14.6787 80.0518 14.6894L77.0146 15.6149C76.974 15.6287 76.9311 15.6344 76.8884 15.6317Z" fill="#D1D3D4"/>
<path d="M45.554 59.5603L93.5894 44.966L108.184 93.0015L60.1483 107.596L45.554 59.5603Z" fill="#CF6BE3"/>
<path d="M60.1454 108.021C60.0554 108.021 59.9677 107.993 59.895 107.94C59.8223 107.887 59.7685 107.812 59.7415 107.726L45.1525 59.6849C45.1357 59.6325 45.1295 59.5772 45.1345 59.5223C45.1394 59.4675 45.1553 59.4141 45.1812 59.3655C45.207 59.3169 45.2424 59.2739 45.2852 59.2392C45.3279 59.2045 45.3772 59.1787 45.4301 59.1633L93.463 44.5742C93.5701 44.5424 93.6854 44.5536 93.7844 44.6054C93.8834 44.6573 93.9583 44.7457 93.9931 44.8519L108.582 92.8848C108.614 92.9919 108.603 93.1072 108.551 93.2062C108.499 93.3052 108.411 93.38 108.304 93.4148L60.2968 108.004C60.2486 108.022 60.1965 108.028 60.1454 108.021ZM46.0779 59.8448L60.423 107.078L107.657 92.7333L93.3031 45.4997L46.0779 59.8448Z" fill="#231F20"/>
<path d="M60.1479 107.588L108.183 92.9932L111.894 105.205L63.8583 119.8L60.1479 107.588Z" fill="white"/>
<path d="M63.8471 120.229C63.7827 120.224 63.7199 120.207 63.662 120.178C63.6128 120.152 63.5695 120.117 63.5347 120.073C63.5 120.03 63.4746 119.98 63.4601 119.926L59.7497 107.718C59.7179 107.611 59.7291 107.495 59.7809 107.396C59.8328 107.297 59.9212 107.223 60.0274 107.188L108.069 92.5987C108.175 92.5671 108.289 92.5785 108.386 92.6305C108.484 92.6825 108.557 92.7708 108.59 92.8763L112.301 105.093C112.342 105.195 112.342 105.31 112.301 105.413C112.245 105.51 112.155 105.582 112.048 105.614L63.9733 120.178C63.9352 120.204 63.8923 120.221 63.8471 120.229ZM60.6668 107.886L64.1332 119.286L111.367 104.941L107.9 93.5326L60.6668 107.886Z" fill="#231F20"/>
<path d="M66.7415 109.905C66.6515 109.906 66.5638 109.878 66.4911 109.825C66.4184 109.772 66.3646 109.697 66.3376 109.611C66.3058 109.504 66.317 109.388 66.3688 109.289C66.4207 109.19 66.5091 109.116 66.6153 109.081L103.635 97.8403C103.746 97.8068 103.867 97.8191 103.969 97.8743C104.072 97.9295 104.148 98.0232 104.182 98.1348C104.215 98.2463 104.203 98.3666 104.148 98.4692C104.093 98.5718 103.999 98.6482 103.887 98.6817L66.8677 109.922L66.7415 109.905Z" fill="#D1D3D4"/>
<path d="M68.0371 114.179C67.9457 114.181 67.8565 114.152 67.7834 114.097C67.7103 114.042 67.6575 113.965 67.6332 113.877C67.6017 113.771 67.6131 113.656 67.6651 113.559C67.717 113.461 67.8053 113.388 67.9109 113.355L102.491 102.846C102.602 102.814 102.722 102.827 102.824 102.883C102.925 102.939 103.001 103.033 103.033 103.145C103.066 103.257 103.052 103.376 102.996 103.478C102.94 103.58 102.846 103.655 102.735 103.688L68.1549 114.188C68.1154 114.193 68.0754 114.19 68.0371 114.179Z" fill="#D1D3D4"/>
<path d="M65.0587 91.0169C64.968 91.0156 64.8801 90.9856 64.8075 90.9312C64.735 90.8768 64.6815 90.8007 64.6548 90.7141L58.6981 71.0853C58.656 70.9829 58.656 70.868 58.6981 70.7656C58.7552 70.6701 58.8448 70.5984 58.9505 70.5636L88.5241 61.578C88.6265 61.5359 88.7414 61.5359 88.8438 61.578C88.893 61.6039 88.9363 61.6397 88.9711 61.6831C89.0058 61.7265 89.0312 61.7767 89.0457 61.8304L95.0361 81.476C95.0773 81.5786 95.0773 81.6931 95.0361 81.7957C94.9823 81.8906 94.8954 81.9624 94.7921 81.9976L65.2186 90.9833L65.0587 91.0169ZM59.6235 71.2451L65.3448 90.0662L94.1191 81.333L88.3979 62.5035L59.6235 71.2451Z" fill="white"/>
<path d="M65.0588 91.017C64.991 91.0175 64.9243 91.0001 64.8653 90.9666C64.8159 90.9409 64.7721 90.9056 64.7364 90.8629C64.7007 90.8201 64.6738 90.7707 64.6574 90.7174C64.641 90.6642 64.6353 90.6083 64.6406 90.5528C64.646 90.4974 64.6623 90.4435 64.6886 90.3944L72.2103 76.2681C72.2613 76.169 72.3488 76.0935 72.4543 76.0578C72.5597 76.0161 72.6771 76.0161 72.7825 76.0578L86.892 83.63C86.9902 83.6835 87.063 83.7739 87.0946 83.8812C87.1262 83.9885 87.1138 84.1039 87.0602 84.2021C87.0067 84.3003 86.9163 84.3731 86.809 84.4047C86.7017 84.4363 86.5863 84.4239 86.4881 84.3703L72.7572 77.0085L65.429 90.7646C65.3974 90.8373 65.3458 90.8996 65.2803 90.9442C65.2148 90.9889 65.1381 91.0141 65.0588 91.017Z" fill="white"/>
<path d="M83.0134 82.4605C82.939 82.4619 82.8658 82.4415 82.803 82.4016C82.7061 82.3468 82.6348 82.2558 82.6049 82.1486C82.5749 82.0413 82.5887 81.9266 82.6432 81.8295L86.2442 75.4941C86.2956 75.4047 86.3774 75.3368 86.4747 75.3028C86.5721 75.2688 86.6784 75.271 86.7742 75.309L93.9594 78.3799C94.0578 78.4262 94.1345 78.5088 94.1733 78.6104C94.2121 78.712 94.2101 78.8246 94.1677 78.9248C94.1252 79.0249 94.0456 79.1047 93.9456 79.1474C93.8456 79.1902 93.733 79.1925 93.6313 79.154L86.7911 76.2345L83.3752 82.2501C83.3385 82.3137 83.2858 82.3666 83.2223 82.4035C83.1588 82.4404 83.0868 82.46 83.0134 82.4605Z" fill="white"/>
<path d="M80.363 75.2836C79.7104 75.2815 79.0757 75.0704 78.5518 74.6813C78.0279 74.2922 77.6425 73.7455 77.4519 73.1214C77.3351 72.7385 77.2949 72.3364 77.3336 71.938C77.3723 71.5397 77.4892 71.1528 77.6775 70.7996C77.8658 70.4464 78.1219 70.1338 78.4311 69.8797C78.7403 69.6255 79.0966 69.4348 79.4796 69.3184C79.8629 69.2018 80.2656 69.162 80.6644 69.2012C81.0632 69.2405 81.4503 69.3581 81.8036 69.5472C82.1569 69.7364 82.4694 69.9934 82.7231 70.3035C82.9769 70.6136 83.167 70.9708 83.2825 71.3545C83.5158 72.1266 83.4334 72.9597 83.0532 73.671C82.6731 74.3824 82.0263 74.9139 81.2548 75.149C80.9661 75.2389 80.6654 75.2843 80.363 75.2836ZM80.363 70.0336C80.1436 70.0307 79.925 70.0619 79.7151 70.1261C79.1958 70.3266 78.7715 70.7162 78.5276 71.2166C78.2836 71.7169 78.238 72.2911 78.4 72.8237C78.5619 73.3563 78.9193 73.808 79.4005 74.0879C79.8817 74.3679 80.451 74.4554 80.994 74.3329C81.5564 74.1611 82.0282 73.774 82.3065 73.256C82.4434 73.0001 82.5281 72.7196 82.5555 72.4307C82.583 72.1418 82.5527 71.8503 82.4664 71.5733C82.3295 71.1216 82.0513 70.7258 81.6726 70.4441C81.294 70.1624 80.8349 70.0097 80.363 70.0083V70.0336Z" fill="white"/>
<path d="M97.0994 44.3399L145.295 29.7809L159.854 77.9763L111.658 92.5354L97.0994 44.3399Z" fill="#CF6BE3"/>
<path d="M111.258 92.4979C111.19 92.4983 111.123 92.4809 111.064 92.4474C111.014 92.4216 110.969 92.386 110.933 92.3426C110.897 92.2992 110.87 92.249 110.854 92.195L96.2646 44.1621C96.233 44.0561 96.2444 43.9419 96.2964 43.8443C96.3484 43.7467 96.4367 43.6735 96.5422 43.6405L144.584 29.043C144.687 29.0057 144.8 29.0057 144.903 29.043C145 29.0982 145.073 29.1885 145.105 29.2954L159.694 77.3283C159.726 77.4343 159.714 77.5484 159.662 77.6461C159.61 77.7437 159.522 77.8169 159.417 77.8499L111.384 92.4474L111.258 92.4979ZM97.1901 44.3219L111.535 91.5724L158.769 77.2694L144.432 29.9685L97.1901 44.3219Z" fill="#231F20"/>
<path d="M111.69 92.5432L159.886 77.9841L163.587 90.2369L115.392 104.796L111.69 92.5432Z" fill="white"/>
<path d="M114.985 104.706C114.914 104.705 114.845 104.688 114.783 104.655C114.686 104.6 114.614 104.51 114.581 104.403L110.871 92.1949C110.855 92.1419 110.85 92.0863 110.856 92.0314C110.862 91.9765 110.879 91.9233 110.906 91.8749C110.932 91.8264 110.968 91.7837 111.011 91.7491C111.054 91.7145 111.104 91.6887 111.157 91.6733L159.19 77.0842C159.296 77.0526 159.41 77.064 159.507 77.116C159.605 77.168 159.678 77.2563 159.711 77.3618L163.422 89.5699C163.444 89.6201 163.456 89.6746 163.456 89.7297C163.456 89.7849 163.444 89.8394 163.422 89.8896C163.398 89.9395 163.363 89.984 163.321 90.0202C163.279 90.0563 163.23 90.0835 163.178 90.0999L115.136 104.689L114.985 104.706ZM111.796 92.3548L115.262 103.764L162.496 89.41L159.03 78.0097L111.796 92.3548Z" fill="#231F20"/>
<path d="M117.854 94.3824C117.763 94.3811 117.675 94.351 117.603 94.2966C117.53 94.2422 117.477 94.1662 117.45 94.0795C117.419 93.9724 117.431 93.8573 117.485 93.7594C117.539 93.6616 117.629 93.5891 117.736 93.5579L154.756 82.3174C154.857 82.2989 154.962 82.3183 155.05 82.372C155.138 82.4256 155.203 82.5098 155.233 82.6084C155.263 82.707 155.256 82.8133 155.213 82.907C155.17 83.0007 155.094 83.0753 155 83.1166L117.98 94.3571C117.94 94.3736 117.897 94.3822 117.854 94.3824Z" fill="#D1D3D4"/>
<path d="M119.192 98.648C119.102 98.6473 119.015 98.6184 118.942 98.5656C118.87 98.5128 118.816 98.4386 118.788 98.3535C118.771 98.3 118.765 98.2436 118.77 98.1877C118.776 98.1318 118.792 98.0776 118.819 98.0282C118.846 97.9788 118.882 97.9352 118.926 97.9001C118.969 97.8649 119.02 97.8389 119.074 97.8235L148.866 88.7789C148.968 88.7604 149.072 88.7799 149.16 88.8335C149.248 88.8872 149.314 88.9713 149.344 89.07C149.374 89.1686 149.367 89.2749 149.324 89.3686C149.281 89.4623 149.205 89.5369 149.11 89.5782L119.276 98.6312L119.192 98.648Z" fill="#D1D3D4"/>
<path d="M116.179 75.4856C116.109 75.4867 116.039 75.4693 115.977 75.4351C115.929 75.4098 115.887 75.3752 115.852 75.3333C115.817 75.2914 115.791 75.2431 115.776 75.1911L109.81 55.5623C109.768 55.4599 109.768 55.345 109.81 55.2426C109.861 55.1435 109.949 55.068 110.054 55.0323L139.662 46.055C139.769 46.0232 139.884 46.0344 139.983 46.0862C140.082 46.1381 140.157 46.2265 140.192 46.3327L146.115 65.9615C146.157 66.0639 146.157 66.1788 146.115 66.2812C146.089 66.3304 146.053 66.3738 146.01 66.4085C145.966 66.4432 145.916 66.4686 145.862 66.4831L116.289 75.4688C116.254 75.481 116.217 75.4867 116.179 75.4856ZM110.778 55.7222L116.499 74.5433L145.265 65.8016L139.51 46.9805L110.778 55.7222Z" fill="white"/>
<path d="M116.171 75.4857C116.099 75.4851 116.028 75.4661 115.966 75.4305C115.903 75.3948 115.851 75.3438 115.814 75.2822C115.777 75.2205 115.756 75.1504 115.754 75.0785C115.752 75.0066 115.768 74.9354 115.801 74.8715L123.323 60.7367C123.377 60.6391 123.468 60.5666 123.575 60.5348C123.625 60.512 123.68 60.5002 123.735 60.5002C123.79 60.5002 123.844 60.512 123.895 60.5348L138.004 68.107C138.057 68.1306 138.104 68.1648 138.143 68.2074C138.182 68.2501 138.211 68.3002 138.23 68.3548C138.249 68.4094 138.256 68.4672 138.251 68.5247C138.247 68.5822 138.23 68.6381 138.203 68.689C138.176 68.7398 138.138 68.7846 138.093 68.8204C138.048 68.8562 137.996 68.8824 137.94 68.8972C137.885 68.9121 137.826 68.9153 137.769 68.9068C137.712 68.8982 137.658 68.878 137.609 68.8474L123.869 61.4855L116.55 75.2501C116.515 75.3209 116.461 75.3805 116.394 75.4222C116.327 75.4638 116.25 75.4858 116.171 75.4857Z" fill="white"/>
<path d="M134.1 66.9291C134.03 66.9294 133.96 66.9121 133.898 66.8786C133.801 66.8238 133.73 66.7328 133.7 66.6256C133.67 66.5183 133.684 66.4036 133.738 66.3065L137.339 59.9627C137.389 59.8721 137.472 59.8036 137.57 59.7709C137.668 59.7381 137.775 59.7435 137.869 59.786L145.046 62.8485C145.099 62.8686 145.147 62.8991 145.188 62.9383C145.229 62.9775 145.262 63.0245 145.284 63.0766C145.306 63.1287 145.318 63.1847 145.318 63.2413C145.318 63.2979 145.307 63.354 145.284 63.4061C145.262 63.4582 145.23 63.5053 145.189 63.5447C145.148 63.584 145.1 63.6146 145.047 63.6349C144.994 63.6551 144.938 63.6644 144.881 63.6623C144.825 63.6602 144.769 63.6467 144.718 63.6226L137.886 60.7031L134.47 66.7188C134.433 66.7836 134.379 66.8372 134.314 66.8742C134.249 66.9112 134.175 66.9301 134.1 66.9291Z" fill="white"/>
<path d="M131.475 59.7608C130.823 59.7586 130.188 59.5476 129.664 59.1584C129.14 58.7693 128.755 58.2226 128.564 57.5985C128.329 56.8253 128.41 55.9903 128.79 55.2771C129.171 54.5639 129.819 54.031 130.592 53.7956C131.365 53.5601 132.2 53.6415 132.913 54.0218C133.627 54.402 134.159 55.05 134.395 55.8232C134.512 56.2061 134.552 56.6082 134.513 57.0065C134.474 57.4049 134.358 57.7918 134.169 58.145C133.981 58.4982 133.725 58.8108 133.416 59.0649C133.106 59.3191 132.75 59.5098 132.367 59.6261C132.078 59.7125 131.777 59.7578 131.475 59.7608ZM131.475 54.5023C131.258 54.5022 131.042 54.5363 130.836 54.6033C130.557 54.684 130.296 54.8202 130.071 55.0038C129.845 55.1874 129.659 55.4146 129.523 55.6718C129.25 56.1894 129.192 56.7945 129.364 57.3545C129.49 57.772 129.738 58.1425 130.075 58.4191C130.413 58.6957 130.825 58.866 131.259 58.9083C131.693 58.9507 132.13 58.8632 132.515 58.657C132.899 58.4508 133.214 58.1351 133.419 57.7499C133.696 57.2334 133.756 56.6283 133.587 56.0672C133.448 55.617 133.169 55.2227 132.791 54.9413C132.413 54.66 131.955 54.5063 131.484 54.5023H131.475Z" fill="white"/>
<path d="M147.789 28.4982L195.825 13.9039L210.419 61.9394L162.383 76.5337L147.789 28.4982Z" fill="#CF6BE3"/>
<path d="M162.378 76.9664C162.308 76.9667 162.238 76.9494 162.176 76.9159C162.127 76.8917 162.084 76.8575 162.049 76.8155C162.014 76.7734 161.989 76.7245 161.974 76.6719L147.377 28.6306C147.346 28.5235 147.358 28.4083 147.412 28.3105C147.466 28.2127 147.556 28.1402 147.663 28.1089L195.696 13.5198C195.746 13.4971 195.801 13.4853 195.856 13.4853C195.911 13.4853 195.965 13.4971 196.016 13.5198C196.066 13.5439 196.11 13.578 196.146 13.62C196.182 13.6619 196.21 13.7109 196.226 13.7638L210.815 61.8052C210.847 61.9111 210.835 62.0253 210.783 62.1229C210.731 62.2206 210.643 62.2938 210.537 62.3268L162.496 76.9159C162.461 76.9414 162.421 76.9587 162.378 76.9664ZM148.311 28.7904L162.614 76.024L209.847 61.721L195.536 14.4453L148.311 28.7904Z" fill="#231F20"/>
<path d="M162.375 76.5338L210.41 61.9395L214.121 74.1517L166.085 88.746L162.375 76.5338Z" fill="white"/>
<path d="M166.08 89.1745C166.013 89.1736 165.948 89.1593 165.887 89.1324C165.787 89.0781 165.712 88.9878 165.676 88.88L161.974 76.672C161.943 76.566 161.954 76.4518 162.006 76.3542C162.058 76.2566 162.146 76.1833 162.252 76.1503L210.285 61.5528C210.338 61.5361 210.395 61.5302 210.451 61.5356C210.507 61.541 210.561 61.5575 210.61 61.5841C210.66 61.6108 210.703 61.6471 210.738 61.6908C210.773 61.7346 210.799 61.7849 210.815 61.8389L214.525 74.0469C214.563 74.1502 214.563 74.2633 214.525 74.3666C214.47 74.4637 214.38 74.536 214.273 74.5686L166.24 89.1577C166.189 89.1764 166.134 89.1822 166.08 89.1745ZM162.942 76.8318L166.366 88.2069L213.591 73.9039L210.133 62.4951L162.942 76.8318Z" fill="#231F20"/>
<path d="M168.974 78.8511C168.884 78.8516 168.797 78.8233 168.724 78.7703C168.651 78.7173 168.598 78.6424 168.571 78.5566C168.539 78.4495 168.55 78.3342 168.602 78.2352C168.654 78.1362 168.742 78.0613 168.848 78.0265L205.868 66.786C205.921 66.7693 205.978 66.7634 206.034 66.7688C206.089 66.7742 206.144 66.7907 206.193 66.8173C206.242 66.844 206.286 66.8803 206.321 66.924C206.356 66.9678 206.382 67.0181 206.398 67.0721C206.413 67.1251 206.418 67.1807 206.412 67.2356C206.406 67.2905 206.389 67.3437 206.363 67.3922C206.336 67.4406 206.3 67.4833 206.257 67.5179C206.214 67.5525 206.165 67.5783 206.112 67.5937L169.092 78.8342L168.974 78.8511Z" fill="#D1D3D4"/>
<path d="M170.27 83.1587C170.179 83.1601 170.089 83.1311 170.016 83.0763C169.943 83.0215 169.89 82.9439 169.866 82.8558C169.835 82.7498 169.846 82.6357 169.898 82.538C169.95 82.4404 170.038 82.3672 170.144 82.3342L197.219 74.1142C197.271 74.0961 197.327 74.0891 197.382 74.0934C197.437 74.0978 197.491 74.1135 197.54 74.1395C197.589 74.1656 197.632 74.2014 197.666 74.2448C197.701 74.2882 197.726 74.3383 197.74 74.3918C197.772 74.4978 197.76 74.612 197.708 74.7096C197.656 74.8072 197.568 74.8804 197.463 74.9134L170.388 83.1419L170.27 83.1587Z" fill="#D1D3D4"/>
<path d="M167.292 59.9627C167.201 59.9614 167.113 59.9313 167.041 59.8769C166.968 59.8225 166.915 59.7465 166.888 59.6598L160.923 40.031C160.885 39.9277 160.885 39.8146 160.923 39.7113C160.978 39.6142 161.068 39.542 161.175 39.5094L190.749 30.5237C190.856 30.4925 190.971 30.5051 191.069 30.5587C191.167 30.6124 191.239 30.7027 191.27 30.8098L197.236 50.4386C197.277 50.5412 197.277 50.6557 197.236 50.7583C197.182 50.8532 197.095 50.925 196.992 50.9602L167.418 59.9459L167.292 59.9627ZM161.857 40.1909L167.569 59.012L196.344 50.2787L190.623 31.4492L161.857 40.1909Z" fill="white"/>
<path d="M167.292 59.9625C167.221 59.9619 167.152 59.9446 167.09 59.9121C167.041 59.8856 166.998 59.8499 166.963 59.8068C166.928 59.7637 166.902 59.7141 166.887 59.661C166.871 59.6078 166.866 59.5521 166.872 59.497C166.878 59.4419 166.895 59.3885 166.921 59.3399L174.443 45.2136C174.494 45.1145 174.582 45.039 174.687 45.0033C174.793 44.9654 174.909 44.9654 175.015 45.0033L189.125 52.5754C189.223 52.629 189.296 52.7194 189.327 52.8267C189.359 52.9339 189.347 53.0494 189.293 53.1476C189.24 53.2457 189.149 53.3186 189.042 53.3502C188.935 53.3817 188.819 53.3694 188.721 53.3158L174.99 45.954L167.662 59.7101C167.63 59.7828 167.579 59.8451 167.513 59.8897C167.448 59.9344 167.371 59.9596 167.292 59.9625Z" fill="white"/>
<path d="M185.221 51.406C185.147 51.4074 185.073 51.3869 185.011 51.3471C184.914 51.2923 184.842 51.2013 184.812 51.094C184.782 50.9868 184.796 50.8721 184.851 50.775L188.452 44.4564C188.503 44.367 188.585 44.2991 188.682 44.2651C188.78 44.2311 188.886 44.2333 188.982 44.2713L196.167 47.3422C196.265 47.3885 196.342 47.4711 196.381 47.5727C196.42 47.6743 196.418 47.787 196.375 47.8871C196.333 47.9872 196.253 48.067 196.153 48.1097C196.053 48.1525 195.94 48.1548 195.839 48.1163L189.024 45.1799L185.583 51.1872C185.547 51.2524 185.495 51.3069 185.431 51.3453C185.368 51.3838 185.295 51.4047 185.221 51.406Z" fill="white"/>
<path d="M182.596 44.2292C182.032 44.2283 181.479 44.0708 180.999 43.7743C180.519 43.4777 180.131 43.0537 179.878 42.5496C179.625 42.0454 179.517 41.4809 179.566 40.919C179.615 40.3571 179.82 39.8198 180.156 39.367C180.492 38.9142 180.948 38.5638 181.472 38.3547C181.996 38.1457 182.567 38.0862 183.123 38.183C183.679 38.2797 184.197 38.5289 184.619 38.9027C185.041 39.2765 185.352 39.7603 185.515 40.3001C185.632 40.6824 185.672 41.0839 185.633 41.4817C185.595 41.8795 185.478 42.2657 185.289 42.6182C185.101 42.9708 184.845 43.2826 184.536 43.536C184.226 43.7893 183.87 43.9792 183.488 44.0946C183.199 44.1845 182.898 44.2299 182.596 44.2292ZM182.596 38.9792C182.376 38.9763 182.158 39.0075 181.948 39.0717C181.601 39.1766 181.285 39.3656 181.028 39.6219C180.771 39.8782 180.582 40.1938 180.476 40.5409C180.371 40.888 180.353 41.2557 180.423 41.6115C180.494 41.9673 180.652 42.3001 180.882 42.5805C181.112 42.8608 181.408 43.0801 181.743 43.2188C182.078 43.3574 182.442 43.4113 182.803 43.3754C183.164 43.3396 183.511 43.2153 183.812 43.0135C184.114 42.8116 184.36 42.5385 184.531 42.2184C184.669 41.9631 184.755 41.6828 184.784 41.3939C184.813 41.105 184.784 40.8133 184.699 40.5357C184.616 40.2586 184.479 40.0008 184.295 39.777C184.112 39.5532 183.886 39.3678 183.631 39.2316C183.315 39.0641 182.962 38.9774 182.604 38.9792H182.596Z" fill="white"/>
<path d="M47.584 50.4638C50.3209 50.4638 52.5396 48.2451 52.5396 45.5082C52.5396 42.7713 50.3209 40.5526 47.584 40.5526C44.8471 40.5526 42.6284 42.7713 42.6284 45.5082C42.6284 48.2451 44.8471 50.4638 47.584 50.4638Z" fill="#D1D3D4"/>
<path d="M55.8797 39.2653C55.7897 39.2658 55.7019 39.2375 55.6293 39.1845C55.5566 39.1315 55.5028 39.0566 55.4758 38.9708C55.444 38.8637 55.4551 38.7484 55.507 38.6494C55.5588 38.5504 55.6473 38.4756 55.7535 38.4407L101.111 24.6678C101.217 24.6362 101.331 24.6476 101.429 24.6996C101.526 24.7516 101.6 24.8399 101.632 24.9454C101.664 25.0525 101.653 25.1678 101.601 25.2668C101.549 25.3658 101.461 25.4407 101.355 25.4755L55.9974 39.2484L55.8797 39.2653Z" fill="#D1D3D4"/>
<path d="M57.0322 43.0598C56.9206 43.0765 56.807 43.0483 56.7162 42.9812C56.6255 42.9142 56.5651 42.8138 56.5484 42.7022C56.5317 42.5907 56.5599 42.477 56.627 42.3863C56.6941 42.2956 56.7944 42.2352 56.906 42.2185L102.263 28.4707C102.369 28.4392 102.484 28.4506 102.581 28.5025C102.679 28.5545 102.752 28.6428 102.785 28.7484C102.817 28.8555 102.806 28.9708 102.754 29.0698C102.702 29.1688 102.614 29.2436 102.507 29.2784L57.15 43.043L57.0322 43.0598Z" fill="#D1D3D4"/>
<path d="M58.1848 46.8543C58.0949 46.8549 58.0071 46.8266 57.9344 46.7736C57.8617 46.7206 57.808 46.6457 57.781 46.5599C57.7491 46.4527 57.7603 46.3374 57.8122 46.2384C57.864 46.1395 57.9524 46.0646 58.0586 46.0298L99.1419 33.5189C99.195 33.5022 99.2508 33.4964 99.3061 33.5019C99.3614 33.5074 99.415 33.524 99.4637 33.5507C99.5125 33.5774 99.5553 33.6137 99.5896 33.6574C99.624 33.7011 99.6491 33.7513 99.6636 33.8049C99.6816 33.8573 99.6887 33.9129 99.6843 33.9682C99.68 34.0234 99.6643 34.0772 99.6382 34.1261C99.6122 34.1751 99.5763 34.2181 99.5329 34.2526C99.4895 34.2871 99.4395 34.3123 99.3859 34.3266L58.3026 46.8375C58.265 46.8513 58.2248 46.857 58.1848 46.8543Z" fill="#D1D3D4"/>
<path d="M67.9195 129.921C67.8295 129.922 67.7417 129.893 67.6691 129.84C67.5964 129.787 67.5426 129.712 67.5156 129.627C67.4838 129.52 67.4949 129.404 67.5468 129.305C67.5986 129.206 67.6871 129.131 67.7933 129.097L128.522 110.654C128.628 110.623 128.742 110.634 128.84 110.686C128.938 110.738 129.011 110.826 129.044 110.932C129.076 111.039 129.064 111.154 129.013 111.253C128.961 111.352 128.872 111.427 128.766 111.462L68.0372 129.904C67.9995 129.918 67.9594 129.923 67.9195 129.921Z" fill="#D1D3D4"/>
<path d="M223.831 146.816C223.831 146.816 204.438 98.8584 191.413 81.5938C189.638 79.2381 187.207 78.6996 185.398 79.7429C183.269 80.9712 182.874 85.5314 182.874 85.5314C182.874 85.5314 177.725 82.1155 175.116 82.5782C172.508 83.041 171.953 87.0206 171.953 87.0206C171.953 87.0206 166.358 84.791 163.876 86.642C161.394 88.4929 161.091 92.1276 161.091 92.1276C161.091 92.1276 132.569 66.2896 129.389 64.0684C126.208 61.8473 120.008 65.0192 122.658 69.4447C124.341 72.1959 138.526 88.1143 143.137 93.1793C147.747 98.2442 158.34 111.866 159.366 115.744C160.393 119.623 161.2 123.998 153.359 124.015C145.518 124.032 138.467 124.932 134.849 127.557C131.231 130.182 128.707 134.347 130.365 135.297C132.022 136.248 157.053 137.148 167.258 142.028C177.464 146.908 189.739 163.962 189.739 163.962L223.831 146.816Z" fill="white"/>
<path d="M189.773 164.408C189.707 164.409 189.643 164.394 189.584 164.365C189.526 164.336 189.475 164.293 189.436 164.24C189.31 164.072 177.102 147.236 167.107 142.441C160.149 139.075 145.997 137.603 137.542 136.719C132.973 136.24 130.76 135.996 130.188 135.668C129.968 135.539 129.785 135.354 129.658 135.133C129.532 134.912 129.465 134.661 129.465 134.406C129.372 132.58 131.694 129.358 134.639 127.212C137.929 124.823 144.239 123.603 153.384 123.594C156.186 123.594 158.054 122.997 158.937 121.853C160.065 120.38 159.585 118.083 158.988 115.854C157.995 112.127 147.646 98.7407 142.85 93.4654C138.055 88.1901 123.996 72.4316 122.321 69.6635C121.768 68.8709 121.525 67.9027 121.638 66.9428C121.751 65.9828 122.213 65.0977 122.936 64.4555C124.526 62.9663 127.546 62.2596 129.666 63.7236C132.62 65.7849 156.649 87.5002 160.797 91.2863C161.116 89.3404 162.122 87.5733 163.632 86.3055C165.862 84.6228 170.194 85.9521 171.642 86.457C171.894 85.3043 172.744 82.5783 175.007 82.1661C177.27 81.7538 181.056 83.9329 182.503 84.8163C182.705 83.4449 183.345 80.4076 185.145 79.3728C187.257 78.1528 189.891 78.9437 191.699 81.3415C204.606 98.4547 223.974 146.185 224.167 146.664C224.209 146.761 224.211 146.869 224.175 146.968C224.14 147.066 224.067 147.147 223.974 147.194L189.916 164.366C189.871 164.39 189.823 164.404 189.773 164.408ZM126.94 63.8077C125.676 63.8097 124.455 64.2734 123.508 65.1118C122.909 65.6222 122.528 66.3417 122.442 67.1234C122.356 67.9052 122.572 68.6903 123.045 69.3186C124.66 72.0025 138.787 87.8284 143.473 92.9859C147.781 97.7227 158.702 111.58 159.804 115.702C160.452 118.134 160.965 120.658 159.61 122.433C158.542 123.821 156.506 124.495 153.384 124.503C144.424 124.503 138.282 125.681 135.135 127.961C132.199 130.09 130.23 133.076 130.306 134.423C130.298 134.538 130.323 134.653 130.376 134.755C130.43 134.858 130.51 134.943 130.609 135.003C131.046 135.255 134.243 135.592 137.626 135.945C146.132 136.837 160.342 138.335 167.477 141.742C177.043 146.345 188.183 161.178 189.907 163.525L223.292 146.698C221.483 142.247 203.327 98.1602 191.077 81.9137C189.537 79.8692 187.341 79.1792 185.617 80.172C184.018 81.0891 183.412 84.3788 183.303 85.6324C183.298 85.7055 183.274 85.7759 183.233 85.8366C183.192 85.8972 183.136 85.9459 183.07 85.9776C183.004 86.0093 182.931 86.0228 182.858 86.0169C182.785 86.0109 182.715 85.9857 182.655 85.9437C182.604 85.9437 177.607 82.6372 175.209 83.0663C172.929 83.4702 172.39 87.1132 172.382 87.1469C172.374 87.2107 172.352 87.272 172.317 87.326C172.282 87.38 172.235 87.4252 172.18 87.4582C172.122 87.4852 172.059 87.4993 171.995 87.4993C171.931 87.4993 171.868 87.4852 171.81 87.4582C171.759 87.4582 166.408 85.338 164.137 87.0207C161.865 88.7034 161.529 92.1698 161.52 92.2034C161.516 92.2824 161.489 92.3585 161.443 92.4226C161.397 92.4868 161.333 92.5362 161.259 92.5652C161.186 92.5935 161.106 92.6007 161.029 92.5858C160.951 92.5709 160.88 92.5346 160.822 92.4811C160.536 92.2202 132.283 66.6347 129.162 64.4555C128.506 64.0162 127.73 63.7899 126.94 63.8077Z" fill="#231F20"/>
<path d="M241.331 191.845C236.981 178.602 223.662 136.072 223.057 136.316C222.451 136.56 180.829 156.357 180.829 156.357L183.353 191.879L241.331 191.845Z" fill="#231F20"/>
<path d="M241.331 192.266H183.345C183.238 192.266 183.134 192.225 183.056 192.151C182.978 192.078 182.931 191.977 182.924 191.87L180.4 156.357C180.395 156.271 180.416 156.187 180.459 156.113C180.503 156.04 180.567 155.981 180.644 155.944C182.327 155.145 222.131 136.307 222.88 135.971C222.993 135.925 223.12 135.925 223.233 135.971C223.822 136.231 225.69 141.599 236.232 174.673C238.504 181.782 240.439 187.916 241.718 191.744C241.739 191.807 241.745 191.874 241.736 191.94C241.726 192.006 241.701 192.068 241.662 192.123C241.624 192.177 241.573 192.221 241.514 192.252C241.455 192.282 241.389 192.299 241.323 192.299L241.331 192.266ZM183.732 191.424H240.75C239.488 187.571 237.604 181.673 235.442 174.892C230.637 159.857 224.134 139.487 222.914 136.888C219.17 138.646 184.632 154.985 181.275 156.584L183.732 191.424Z" fill="#231F20"/>
<path d="M24.5476 135.382C24.5476 135.382 32.0777 78.7837 38.5814 72.7092C46.305 65.5072 53.3387 60.6105 54.626 64.7331C55.9133 68.8558 57.1501 75.7128 46.5658 83.4364L48.1055 97.1673C48.1055 97.1673 58.4962 104.344 53.0863 127.002" fill="white"/>
<path d="M24.5475 135.769H24.497C24.3955 135.754 24.304 135.7 24.2424 135.618C24.1809 135.536 24.1545 135.433 24.1689 135.331C24.4718 133.017 31.7916 78.523 38.3205 72.4316C45.7833 65.4652 50.8482 62.2596 53.3723 62.9327C53.7684 63.0429 54.1279 63.257 54.4134 63.5529C54.6989 63.8487 54.9001 64.2156 54.9961 64.6154C57.924 73.9797 52.2954 79.6925 46.9696 83.6216L48.4672 96.957C49.7797 97.9582 58.5634 105.631 53.4564 127.086C53.4456 127.136 53.4249 127.182 53.3955 127.224C53.3662 127.265 53.3288 127.3 53.2857 127.327C53.2425 127.354 53.1944 127.371 53.1442 127.379C53.0941 127.387 53.0429 127.384 52.9937 127.372C52.8966 127.346 52.8137 127.283 52.7632 127.196C52.7127 127.11 52.6988 127.006 52.7244 126.909C58.0081 104.765 47.996 97.5544 47.8951 97.4619C47.85 97.4318 47.8122 97.392 47.7845 97.3454C47.7568 97.2988 47.74 97.2466 47.7352 97.1926L46.1871 83.4617C46.1775 83.3937 46.1874 83.3244 46.2157 83.2618C46.244 83.1992 46.2895 83.146 46.347 83.1084C56.1824 75.9064 55.7449 69.5541 54.2725 64.8173C54.2124 64.542 54.0791 64.2879 53.8866 64.0821C53.694 63.8762 53.4495 63.7262 53.1788 63.6478C50.9913 63.0757 45.9095 66.3822 38.8758 72.97C32.5488 78.8595 25.0355 134.843 24.9598 135.407C24.9566 135.458 24.9433 135.508 24.9209 135.553C24.8984 135.599 24.8671 135.64 24.8288 135.673C24.7905 135.707 24.7459 135.733 24.6976 135.749C24.6494 135.765 24.5983 135.772 24.5475 135.769Z" fill="#231F20"/>
</svg>
