<svg width="242" height="156" viewBox="0 0 242 156" fill="none" xmlns="http://www.w3.org/2000/svg">
<path d="M44.9844 112.188H198.772C202.759 112.188 205.991 108.956 205.991 104.969V14.9658C205.991 10.9789 202.759 7.74686 198.772 7.74686H44.9844C40.9974 7.74686 37.7654 10.9789 37.7654 14.9658V104.969C37.7654 108.956 40.9974 112.188 44.9844 112.188Z" fill="white"/>
<path d="M198.773 112.621H44.9931C42.9644 112.619 41.0195 111.812 39.585 110.377C38.1505 108.943 37.3436 106.998 37.3413 104.969V14.9486C37.3436 12.9199 38.1505 10.975 39.585 9.54049C41.0195 8.106 42.9644 7.2991 44.9931 7.29681H198.773C200.801 7.2991 202.746 8.106 204.181 9.54049C205.615 10.975 206.422 12.9199 206.424 14.9486V104.969C206.422 106.998 205.615 108.943 204.181 110.377C202.746 111.812 200.801 112.619 198.773 112.621ZM44.9931 8.17971C43.194 8.182 41.4692 8.89771 40.197 10.1699C38.9249 11.442 38.2092 13.1668 38.2069 14.9659V104.987C38.2092 106.786 38.9249 108.51 40.197 109.783C41.4692 111.055 43.194 111.77 44.9931 111.773H198.773C200.572 111.77 202.296 111.055 203.569 109.783C204.841 108.51 205.556 106.786 205.559 104.987V14.9659C205.556 13.1668 204.841 11.442 203.569 10.1699C202.296 8.89771 200.572 8.182 198.773 8.17971H44.9931Z" fill="#231F20"/>
<path d="M53.1554 104.008H190.619C194.075 104.008 196.877 101.207 196.877 97.7502V22.1848C196.877 18.7285 194.075 15.9267 190.619 15.9267H53.1554C49.6991 15.9267 46.8972 18.7285 46.8972 22.1848V97.7502C46.8972 101.207 49.6991 104.008 53.1554 104.008Z" fill="white"/>
<path d="M190.61 104.441H53.1554C51.3801 104.441 49.6773 103.737 48.4211 102.482C47.165 101.227 46.4581 99.5256 46.4558 97.7502V22.1848C46.4581 20.4095 47.165 18.7076 48.4211 17.4531C49.6773 16.1985 51.3801 15.4939 53.1554 15.4939H190.61C192.385 15.4939 194.088 16.1985 195.344 17.4531C196.6 18.7076 197.307 20.4095 197.31 22.1848V97.7502C197.307 99.5256 196.6 101.227 195.344 102.482C194.088 103.737 192.385 104.441 190.61 104.441ZM53.1554 16.3594C51.6172 16.3709 50.1456 16.9894 49.0611 18.0804C47.9766 19.1713 47.3669 20.6465 47.3647 22.1848V97.7502C47.367 99.296 47.9826 100.778 49.0765 101.87C50.1703 102.962 51.6529 103.576 53.1987 103.576H190.653C192.199 103.576 193.682 102.962 194.776 101.87C195.869 100.778 196.485 99.296 196.487 97.7502V22.1848C196.485 20.639 195.869 19.1574 194.776 18.0651C193.682 16.9729 192.199 16.3594 190.653 16.3594H53.1554Z" fill="#D1D3D4"/>
<path d="M124.886 51.6926H140.147V68.5109H124.886V51.6926Z" fill="white"/>
<path d="M140.147 68.9437H124.886C124.771 68.9437 124.661 68.8981 124.58 68.8169C124.499 68.7357 124.453 68.6256 124.453 68.5109V51.6926C124.453 51.5778 124.499 51.4677 124.58 51.3866C124.661 51.3054 124.771 51.2598 124.886 51.2598H140.147C140.261 51.2598 140.371 51.3054 140.453 51.3866C140.534 51.4677 140.579 51.5778 140.579 51.6926V68.5109C140.579 68.6256 140.534 68.7357 140.453 68.8169C140.371 68.8981 140.261 68.9437 140.147 68.9437ZM125.319 68.0781H139.714V52.1254H125.319V68.0781Z" fill="#D1D3D4"/>
<path d="M149.824 37.4018H165.084V68.5108H149.824V37.4018Z" fill="white"/>
<path d="M165.084 68.9437H149.824C149.709 68.9437 149.599 68.8981 149.518 68.8169C149.437 68.7357 149.391 68.6257 149.391 68.5109V37.4018C149.391 37.287 149.437 37.177 149.518 37.0958C149.599 37.0146 149.709 36.969 149.824 36.969H165.084C165.199 36.969 165.309 37.0146 165.39 37.0958C165.471 37.177 165.517 37.287 165.517 37.4018V68.5109C165.515 68.625 165.468 68.7338 165.388 68.8144C165.307 68.8951 165.198 68.9414 165.084 68.9437ZM150.257 68.0781H164.651V37.8346H150.257V68.0781Z" fill="#D1D3D4"/>
<path d="M174.753 25.0759H190.013V68.5109H174.753V25.0759Z" fill="#CF6BE3"/>
<path d="M92.7645 33.6971H58.5134C58.3986 33.6971 58.2885 33.6515 58.2073 33.5703C58.1262 33.4892 58.0806 33.3791 58.0806 33.2643C58.0806 33.1495 58.1262 33.0394 58.2073 32.9583C58.2885 32.8771 58.3986 32.8315 58.5134 32.8315H92.7645C92.8793 32.8315 92.9893 32.8771 93.0705 32.9583C93.1517 33.0394 93.1973 33.1495 93.1973 33.2643C93.1973 33.3791 93.1517 33.4892 93.0705 33.5703C92.9893 33.6515 92.8793 33.6971 92.7645 33.6971Z" fill="#D1D3D4"/>
<path d="M92.7645 43.0801H58.5134C58.3986 43.0801 58.2885 43.0345 58.2073 42.9533C58.1262 42.8722 58.0806 42.7621 58.0806 42.6473C58.0806 42.5325 58.1262 42.4224 58.2073 42.3413C58.2885 42.2601 58.3986 42.2145 58.5134 42.2145H92.7645C92.8793 42.2145 92.9893 42.2601 93.0705 42.3413C93.1517 42.4224 93.1973 42.5325 93.1973 42.6473C93.1973 42.7621 93.1517 42.8722 93.0705 42.9533C92.9893 43.0345 92.8793 43.0801 92.7645 43.0801Z" fill="#D1D3D4"/>
<path d="M83.9269 52.4715H58.5134C58.3986 52.4715 58.2885 52.4259 58.2073 52.3448C58.1262 52.2636 58.0806 52.1535 58.0806 52.0387C58.0806 51.924 58.1262 51.8139 58.2073 51.7327C58.2885 51.6516 58.3986 51.606 58.5134 51.606H83.9269C84.0417 51.606 84.1517 51.6516 84.2329 51.7327C84.3141 51.8139 84.3597 51.924 84.3597 52.0387C84.3597 52.1535 84.3141 52.2636 84.2329 52.3448C84.1517 52.4259 84.0417 52.4715 83.9269 52.4715Z" fill="#D1D3D4"/>
<path d="M188.204 83.5807H147.772C147.658 83.5807 147.548 83.5351 147.466 83.454C147.385 83.3728 147.34 83.2627 147.34 83.1479C147.34 83.0332 147.385 82.9231 147.466 82.8419C147.548 82.7608 147.658 82.7151 147.772 82.7151H188.186C188.301 82.7151 188.411 82.7608 188.492 82.8419C188.574 82.9231 188.619 83.0332 188.619 83.1479C188.619 83.2627 188.574 83.3728 188.492 83.454C188.411 83.5351 188.301 83.5807 188.186 83.5807H188.204Z" fill="#D1D3D4"/>
<path d="M180.665 92.6694H147.772C147.658 92.6694 147.548 92.6238 147.466 92.5426C147.385 92.4614 147.34 92.3513 147.34 92.2366C147.342 92.1225 147.388 92.0137 147.469 91.933C147.549 91.8523 147.658 91.806 147.772 91.8038H180.665C180.779 91.8038 180.889 91.8494 180.971 91.9305C181.052 92.0117 181.097 92.1218 181.097 92.2366C181.097 92.3513 181.052 92.4614 180.971 92.5426C180.889 92.6238 180.779 92.6694 180.665 92.6694Z" fill="#D1D3D4"/>
<path d="M201.136 127.353V108.613C197.873 105.74 195.042 102.411 192.731 98.7285C188.87 92.6001 175.35 70.1036 181.599 68.0609C187.849 66.0181 205.117 87.1643 205.117 87.1643L205.983 56.1158C205.983 56.1158 219.529 66.7019 223.615 78.2834C227.7 89.8649 226.004 133.482 226.004 133.482L201.136 127.353Z" fill="white"/>
<path d="M226.012 133.914H225.909L201.032 127.777C200.938 127.756 200.854 127.703 200.794 127.627C200.735 127.552 200.702 127.458 200.703 127.362V108.812C197.484 105.928 194.679 102.613 192.367 98.9621C188.905 93.4484 177.739 75.0288 179.799 69.3073C179.924 68.9177 180.141 68.564 180.432 68.2762C180.723 67.9884 181.079 67.775 181.47 67.654C184.222 66.7884 189.113 69.7401 196.003 76.5435C199.837 80.3261 203.265 84.2905 204.719 86.013L205.585 56.1071C205.588 56.0268 205.613 55.9489 205.657 55.8818C205.701 55.8146 205.763 55.7609 205.836 55.7263C205.908 55.6915 205.989 55.6779 206.068 55.6871C206.148 55.6963 206.223 55.7279 206.286 55.7782C206.424 55.8821 219.979 66.572 224.056 78.1449C228.133 89.7177 226.54 131.716 226.471 133.499C226.468 133.563 226.451 133.626 226.421 133.682C226.391 133.739 226.349 133.789 226.298 133.828C226.217 133.892 226.115 133.923 226.012 133.914ZM201.568 126.99L225.597 132.91C225.77 127.899 226.991 89.0945 223.217 78.3786C219.754 68.5196 209.177 59.2665 206.407 56.9554L205.541 87.121C205.536 87.2081 205.506 87.2919 205.453 87.3616C205.4 87.4313 205.328 87.4838 205.246 87.5126C205.163 87.5413 205.074 87.5449 204.99 87.523C204.905 87.501 204.829 87.4545 204.771 87.3893C200.019 81.5726 186.594 66.823 181.729 68.4244C181.465 68.5083 181.225 68.6542 181.03 68.85C180.834 69.0458 180.688 69.2857 180.604 69.5496C179.072 73.8083 186.369 87.7788 193.086 98.4428C195.39 102.092 198.203 105.394 201.439 108.25C201.487 108.292 201.525 108.344 201.552 108.402C201.579 108.46 201.593 108.523 201.594 108.587L201.568 126.99Z" fill="#231F20"/>
<path d="M234.881 124.06L192 122V155.965L238.309 151.161L234.881 124.06Z" fill="#161616"/>
<path d="M134.209 94.6341C134.146 94.6342 134.084 94.6202 134.027 94.5933C133.97 94.5663 133.92 94.527 133.88 94.4783L121.069 79.7634L111.738 88.5404C111.659 88.6191 111.551 88.6633 111.44 88.6633C111.328 88.6633 111.22 88.6191 111.141 88.5404L97.456 74.9248C97.4154 74.8845 97.3833 74.8367 97.3613 74.7839C97.3393 74.7312 97.328 74.6746 97.328 74.6175C97.328 74.5604 97.3393 74.5038 97.3613 74.451C97.3833 74.3983 97.4154 74.3504 97.456 74.3102C97.5384 74.2303 97.6486 74.1857 97.7633 74.1857C97.878 74.1857 97.9882 74.2303 98.0706 74.3102L111.418 87.6402L120.809 78.8199C120.85 78.7792 120.899 78.7474 120.953 78.7266C121.006 78.7057 121.064 78.6962 121.121 78.6987C121.179 78.7012 121.236 78.7156 121.288 78.7409C121.34 78.7662 121.386 78.8019 121.424 78.8459L134.538 93.8897C134.575 93.932 134.604 93.9814 134.622 94.035C134.64 94.0886 134.648 94.1453 134.644 94.2018C134.64 94.2582 134.624 94.3133 134.599 94.3638C134.573 94.4143 134.538 94.4591 134.494 94.4956C134.419 94.5743 134.317 94.6234 134.209 94.6341Z" fill="#D1D3D4"/>
<path d="M77.1343 77.7588L76.8195 77.4877C76.1377 76.9004 75.7171 76.0663 75.6502 75.1688C75.5834 74.2714 75.8758 73.3842 76.4631 72.7024L94.0372 52.2994L99.4938 56.9994L81.9196 77.4024C81.3323 78.0842 80.4982 78.5048 79.6008 78.5717C78.7034 78.6385 77.8162 78.3461 77.1343 77.7588Z" fill="white"/>
<path d="M79.3913 79.0104C78.4765 79.009 77.5923 78.6805 76.8984 78.0843L76.5782 77.8073C76.1969 77.4791 75.8842 77.0789 75.6578 76.6296C75.4314 76.1804 75.2959 75.6909 75.2589 75.1892C75.2219 74.6876 75.2842 74.1835 75.4423 73.7059C75.6003 73.2283 75.851 72.7866 76.18 72.406L93.7254 51.9869C93.8008 51.9018 93.9063 51.8491 94.0197 51.8398C94.0773 51.8348 94.1353 51.8415 94.1903 51.8593C94.2453 51.8771 94.2962 51.9058 94.3399 51.9437L99.8018 56.6438C99.8816 56.7261 99.9262 56.8363 99.9262 56.9511C99.9262 57.0658 99.8816 57.176 99.8018 57.2583L82.2218 77.6601C81.8986 78.0415 81.5023 78.3544 81.0563 78.5804C80.6104 78.8063 80.1237 78.9408 79.625 78.9758L79.3913 79.0104ZM77.1408 77.1494L77.4611 77.4264C78.059 77.9357 78.8327 78.1905 79.6163 78.1362C80.0034 78.1078 80.3809 78.0029 80.7271 77.8275C81.0733 77.6522 81.3812 77.41 81.6332 77.1148L98.9448 57.0419L94.1062 52.8958L76.7946 72.9687C76.2826 73.5649 76.0279 74.3398 76.0864 75.1235C76.1448 75.9071 76.5115 76.6357 77.1062 77.1494H77.1408Z" fill="#231F20"/>
<path d="M99.7053 60.1658L90.8844 52.5679L108.074 32.6109L116.895 40.2088L99.7053 60.1658Z" fill="white"/>
<path d="M99.7152 60.5907C99.6106 60.5918 99.5091 60.5549 99.4296 60.4868L90.6439 52.8524C90.6 52.8165 90.5638 52.7722 90.5374 52.722C90.5109 52.6719 90.4948 52.6169 90.49 52.5604C90.4851 52.5039 90.4916 52.447 90.5092 52.3931C90.5267 52.3392 90.5548 52.2894 90.592 52.2465L107.782 32.2861C107.86 32.199 107.969 32.1461 108.085 32.139C108.142 32.1342 108.198 32.141 108.252 32.1588C108.305 32.1767 108.355 32.2053 108.397 32.2429L117.191 39.8687C117.277 39.9452 117.33 40.0523 117.338 40.1671C117.346 40.2819 117.309 40.3954 117.235 40.4832L100.044 60.4436C99.9687 60.5287 99.8632 60.5814 99.7498 60.5907H99.7152ZM91.5095 52.5148L99.6719 59.5434L116.3 40.2495L108.137 33.2123L91.5095 52.5148Z" fill="#231F20"/>
<path d="M51.611 103.837L54.2095 106.059C55.9352 107.535 58.5307 107.333 60.0067 105.607L84.4361 77.0436C85.912 75.3178 85.7096 72.7223 83.9838 71.2464L81.3853 69.024C79.6596 67.548 77.064 67.7505 75.5881 69.4762L51.1587 98.0398C49.6828 99.7655 49.8852 102.361 51.611 103.837Z" fill="white"/>
<path d="M57.466 107.436C56.3824 107.434 55.3353 107.044 54.5144 106.337L51.9176 104.104C51.0057 103.317 50.4433 102.201 50.3541 101C50.2648 99.7985 50.6559 98.6112 51.4415 97.6983L75.9722 69.2207C76.7588 68.3087 77.8753 67.7464 79.0763 67.6571C80.2773 67.5678 81.4647 67.959 82.3775 68.7446L84.9742 70.9778C85.8841 71.7657 86.445 72.8819 86.5342 74.0822C86.6235 75.2825 86.2337 76.4693 85.4503 77.3831L60.9197 105.861C60.5306 106.313 60.0555 106.684 59.5221 106.951C58.9887 107.219 58.4075 107.378 57.8122 107.419L57.466 107.436ZM52.4803 103.446L55.077 105.679C55.4429 105.996 55.8678 106.238 56.3274 106.39C56.787 106.542 57.2721 106.601 57.7548 106.565C58.2375 106.529 58.7083 106.398 59.1401 106.179C59.5718 105.96 59.956 105.658 60.2705 105.29L84.8011 76.8205C85.1181 76.4546 85.3596 76.0297 85.5117 75.5701C85.6638 75.1105 85.7234 74.6254 85.6872 74.1427C85.651 73.6599 85.5197 73.1891 85.3007 72.7574C85.0818 72.3256 84.7796 71.9415 84.4116 71.627L81.8149 69.3938C81.449 69.0773 81.0244 68.8362 80.5653 68.684C80.1061 68.5319 79.6215 68.4718 79.1391 68.5072C78.6567 68.5425 78.1861 68.6727 77.754 68.8902C77.322 69.1077 76.9371 69.4082 76.6214 69.7746L52.0907 98.2523C51.7743 98.6181 51.5331 99.0428 51.381 99.5019C51.2288 99.961 51.1687 100.446 51.2041 100.928C51.2395 101.41 51.3696 101.881 51.5871 102.313C51.8046 102.745 52.1052 103.13 52.4716 103.446H52.4803Z" fill="#231F20"/>
<path d="M116.888 62.2094C133.955 62.2094 147.79 48.3744 147.79 31.3081C147.79 14.2418 133.955 0.406799 116.888 0.406799C99.8221 0.406799 85.9871 14.2418 85.9871 31.3081C85.9871 48.3744 99.8221 62.2094 116.888 62.2094Z" fill="white"/>
<path d="M116.862 62.6336C109.719 62.6229 102.793 60.1702 97.2351 55.6822C91.677 51.1943 87.8204 44.941 86.305 37.9598C84.7896 30.9786 85.7067 23.6891 88.9039 17.3007C92.1012 10.9124 97.3865 5.80912 103.883 2.83768C110.379 -0.133761 117.697 -0.794788 124.62 0.964268C131.544 2.72332 137.659 6.79673 141.949 12.5087C146.239 18.2206 148.448 25.2277 148.208 32.3675C147.969 39.5073 145.295 46.3505 140.631 51.7619C137.693 55.187 134.046 57.9332 129.942 59.8103C125.838 61.6874 121.375 62.6507 116.862 62.6336ZM116.932 0.830949C116.17 0.830949 115.4 0.830948 114.629 0.917506C106.696 1.51771 99.3153 5.20652 94.0732 11.191C88.8311 17.1755 86.1463 24.9778 86.5959 32.9208C87.0455 40.8638 90.5937 48.3133 96.4776 53.668C102.362 59.0227 110.112 61.855 118.062 61.5561C126.012 61.2572 133.527 57.851 138.993 52.0697C144.458 46.2884 147.437 38.5935 147.289 30.6391C147.141 22.6848 143.878 15.106 138.201 9.53206C132.524 3.95806 124.887 0.83383 116.932 0.830949Z" fill="#231F20"/>
<path d="M116.888 56.41C130.752 56.41 141.99 45.1715 141.99 31.3081C141.99 17.4447 130.752 6.20618 116.888 6.20618C103.025 6.20618 91.7864 17.4447 91.7864 31.3081C91.7864 45.1715 103.025 56.41 116.888 56.41Z" fill="white"/>
<path d="M116.871 56.8341C111.987 56.8252 107.207 55.4155 103.1 52.7723C98.992 50.1291 95.7288 46.3632 93.6969 41.9213C91.6651 37.4795 90.9499 32.5481 91.6361 27.712C92.3223 22.8759 94.3812 18.3381 97.5686 14.6369C100.363 11.3925 103.927 8.90273 107.935 7.39663C111.943 5.89053 116.266 5.41644 120.505 6.01797C124.744 6.61951 128.764 8.27735 132.195 10.839C135.625 13.4007 138.357 16.7839 140.138 20.6775C141.919 24.5711 142.693 28.85 142.387 33.1207C142.082 37.3915 140.707 41.5168 138.39 45.1174C136.073 48.7179 132.888 51.678 129.128 53.7255C125.368 55.7729 121.153 56.8419 116.871 56.8341ZM116.923 6.63026C116.308 6.63026 115.685 6.63026 115.053 6.6995C111.821 6.92903 108.667 7.79867 105.774 9.25788C102.881 10.7171 100.306 12.7368 98.2005 15.1995C94.5301 19.462 92.4273 24.8512 92.2408 30.4731C92.0543 36.095 93.7954 41.6117 97.1752 46.1081C100.555 50.6045 105.37 53.8102 110.823 55.1937C116.275 56.5771 122.036 56.055 127.151 53.714C132.266 51.3731 136.426 47.3539 138.943 42.3232C141.459 37.2925 142.18 31.5527 140.986 26.0559C139.792 20.5591 136.755 15.6357 132.378 12.1024C128.001 8.56914 122.548 6.63831 116.923 6.63026Z" fill="#231F20"/>
<path d="M54.073 125.232C55.5075 122.062 57.1052 118.968 58.8597 115.962C60.0715 113.893 61.3872 111.193 63.1097 109.487C64.8322 107.782 67.4376 106.631 69.4025 104.865C76.9244 98.0531 84.5675 90.3927 86.818 80.4905C87.1815 78.8978 86.8959 76.5867 85.2599 76.5001C84.6481 76.5308 84.061 76.7517 83.5807 77.132C79.5384 79.7807 76.5349 84.1952 72.5965 86.6534C73.6352 85.9609 73.9381 77.5648 74.5873 75.9202C75.8684 72.6916 77.8938 69.7053 79.4086 66.5026C80.0145 65.2216 80.6291 63.7587 80.1011 62.4431C79.8069 61.85 79.3508 61.3523 78.7856 61.0076C78.2203 60.663 77.569 60.4854 76.9071 60.4955C75.5845 60.5299 74.2816 60.824 73.0725 61.3611C68.4561 63.0922 63.88 64.9648 59.3444 66.9787C57.846 67.5517 56.4357 68.3326 55.155 69.2985C53.8205 70.5443 52.6875 71.9897 51.7965 73.5831C48.3342 79.0622 38.4579 97.8194 36.9864 102.069C36.4584 103.584 30.7282 121.225 29.9232 121.112L54.073 125.232Z" fill="white"/>
<path d="M54.073 125.665H53.9951L29.8626 121.554C29.7498 121.533 29.6497 121.468 29.5834 121.375C29.5172 121.281 29.49 121.165 29.5077 121.052C29.5196 120.978 29.5507 120.909 29.5978 120.851C29.6449 120.793 29.7064 120.749 29.7761 120.723C30.2175 120.186 31.6977 116.672 36.1294 103.316C36.3545 102.632 36.519 102.156 36.5795 101.957C38.0337 97.7502 47.8321 79.1315 51.4329 73.3927C52.3478 71.756 53.5165 70.2748 54.8953 69.0042C56.2043 68.0017 57.6463 67.186 59.1799 66.5805C63.6896 64.5897 68.3205 62.6941 72.9254 60.9542C74.1862 60.3918 75.5445 60.0802 76.9244 60.0367C77.6689 60.035 78.3992 60.2416 79.0324 60.6332C79.6657 61.0247 80.1768 61.5857 80.5079 62.2526C81.0965 63.7154 80.4559 65.2908 79.8068 66.6671C79.1576 68.0434 78.4391 69.3244 77.7294 70.6055C76.7073 72.3614 75.7966 74.1798 75.0028 76.05C74.6601 77.4718 74.4343 78.9193 74.3276 80.3779C74.1729 82.0811 73.9244 83.7744 73.5832 85.4502C75.1001 84.2623 76.5291 82.9663 77.8592 81.5724C79.5272 79.8028 81.3686 78.205 83.3557 76.8031C83.9062 76.3595 84.5877 76.11 85.2946 76.0933C85.5806 76.1068 85.8599 76.1846 86.1116 76.321C86.3634 76.4574 86.5812 76.6488 86.7487 76.881C87.0752 77.4386 87.2876 78.0556 87.3738 78.696C87.46 79.3364 87.4182 79.9875 87.2508 80.6116C84.9483 90.739 76.985 98.6158 69.6968 105.212C68.7317 106.045 67.698 106.794 66.6066 107.453C65.4656 108.132 64.3981 108.926 63.4213 109.825C62.0705 111.346 60.924 113.036 60.0109 114.854C59.7512 115.322 59.5002 115.78 59.2492 116.204C57.4967 119.198 55.9018 122.28 54.4711 125.44C54.4332 125.512 54.3756 125.571 54.305 125.611C54.2344 125.651 54.1539 125.67 54.073 125.665ZM30.7022 120.809L53.8133 124.748C55.2199 121.671 56.7799 118.666 58.4875 115.746C58.7385 115.322 58.9895 114.88 59.2492 114.413C60.1986 112.531 61.395 110.784 62.8067 109.219C63.8268 108.28 64.9405 107.447 66.1305 106.735C67.1793 106.098 68.1751 105.377 69.1082 104.58C76.2925 98.0791 84.152 90.3062 86.4198 80.4299C86.6947 79.4148 86.5676 78.3327 86.0649 77.409C85.9727 77.2775 85.8512 77.1692 85.71 77.0926C85.5688 77.016 85.4118 76.9732 85.2513 76.9675C84.7324 77.0086 84.2378 77.2046 83.8317 77.5301C81.8983 78.904 80.1064 80.4669 78.4824 82.1956C76.7892 84.0131 74.896 85.6333 72.8388 87.0256C72.742 87.0839 72.6263 87.1021 72.5163 87.0762C72.4063 87.0503 72.3108 86.9825 72.2502 86.8871C72.1898 86.7911 72.1687 86.6754 72.1912 86.5642C72.2138 86.453 72.2783 86.3548 72.3714 86.2899C72.8302 85.909 73.237 82.3861 73.4794 80.2914C73.5872 78.761 73.8306 77.2432 74.2064 75.7557C75.0111 73.8522 75.9362 72.0018 76.9763 70.216C77.6861 68.9436 78.4045 67.6192 79.0364 66.3209C79.6683 65.0225 80.1703 63.7241 79.7115 62.6075C79.4486 62.0927 79.0462 61.6623 78.5503 61.3654C78.0544 61.0684 77.485 60.917 76.9071 60.9283C75.6423 60.9784 74.399 61.2724 73.2456 61.7939C68.6494 63.525 64.0358 65.412 59.5348 67.4028C58.0792 67.9775 56.7078 68.7462 55.4579 69.688C54.1611 70.9104 53.0579 72.3231 52.186 73.8774C48.5938 79.5902 38.856 98.1137 37.4192 102.269L36.9777 103.576C33.0826 115.235 31.4899 119.364 30.7022 120.809Z" fill="#231F20"/>
<path d="M62.8433 122.196L22.0657 110L8 140.356L54.3347 154.742L62.8433 122.196Z" fill="black"/>
<path d="M106.631 30.0963H98.4342C98.3754 30.0966 98.3172 30.0844 98.2635 30.0605C98.2098 30.0366 98.1617 30.0016 98.1226 29.9578C98.0801 29.9148 98.0473 29.8632 98.0264 29.8065C98.0055 29.7497 97.997 29.6892 98.0014 29.6289C98.2774 25.4055 99.9524 21.3944 102.762 18.2292C103.318 17.6163 103.91 17.0382 104.537 16.498C107.714 13.6827 111.742 12.0101 115.98 11.746C116.101 11.7412 116.219 11.7848 116.308 11.8671C116.351 11.9071 116.384 11.9555 116.406 12.0092C116.429 12.0628 116.44 12.1206 116.438 12.1787V20.3066C116.437 20.4124 116.398 20.5143 116.328 20.5937C116.258 20.6732 116.162 20.7248 116.057 20.7394C113.775 21.0152 111.651 22.0487 110.025 23.6745C108.399 25.3002 107.366 27.4243 107.09 29.7068C107.086 29.7626 107.07 29.8169 107.045 29.8667C107.019 29.9165 106.984 29.9608 106.942 29.997C106.899 30.0332 106.85 30.0606 106.796 30.0777C106.743 30.0947 106.687 30.1011 106.631 30.0963ZM98.8843 29.2307H106.224C106.518 27.3307 107.302 25.5404 108.501 24.0372C109.03 23.3649 109.638 22.7576 110.31 22.2282C111.812 21.0286 113.603 20.2437 115.503 19.9517V12.5596C111.623 12.8999 107.954 14.4777 105.039 17.0606C104.426 17.6011 103.848 18.1793 103.307 18.7918C100.758 21.7109 99.208 25.3685 98.8843 29.2307Z" fill="#D1D3D4"/>
<path d="M136 29.6636C135.731 25.5169 134.086 21.5785 131.326 18.4716L125.561 24.2883C126.794 25.8394 127.567 27.7044 127.795 29.6723C127.887 30.4862 127.887 31.3079 127.795 32.1219C127.511 34.505 126.433 36.7234 124.736 38.4205C123.039 40.1176 120.821 41.1947 118.438 41.4788C118.03 41.5239 117.619 41.5471 117.209 41.5481C116.798 41.5468 116.388 41.5237 115.979 41.4788C113.59 41.1954 111.366 40.1126 109.669 38.4062C107.972 36.6998 106.901 34.4699 106.631 32.0786H98.4341C98.6831 36.2401 100.313 40.1998 103.065 43.3312C103.6 43.9484 104.179 44.5269 104.796 45.0623C107.902 47.8084 111.833 49.4436 115.971 49.7105H117.2C117.2 49.7105 118.022 49.7105 118.429 49.7105C122.563 49.4417 126.491 47.8066 129.595 45.0623C130.212 44.5269 130.791 43.9484 131.326 43.3312C134.098 40.2082 135.744 36.2465 136 32.0786C136 31.6718 136 31.2649 136 30.8495C136 30.434 136.035 30.0618 136 29.6636Z" fill="#CF6BE3"/>
<path d="M123.822 22.9812C123.724 22.98 123.63 22.9465 123.553 22.886C122.06 21.694 120.259 20.9497 118.36 20.7393C118.255 20.7248 118.159 20.6731 118.089 20.5937C118.019 20.5142 117.98 20.4123 117.979 20.3065V12.0922C117.979 12.0334 117.991 11.9752 118.015 11.9215C118.039 11.8678 118.074 11.8197 118.118 11.7805C118.204 11.6995 118.319 11.656 118.438 11.6594C122.678 11.9216 126.709 13.5943 129.889 16.4114C129.977 16.4922 130.03 16.604 130.037 16.723C130.038 16.7824 130.027 16.8414 130.004 16.8964C129.982 16.9514 129.949 17.0014 129.907 17.0433L124.099 22.8513C124.027 22.929 123.927 22.9756 123.822 22.9812ZM118.871 19.9603C120.651 20.2312 122.339 20.9324 123.787 22.0031L128.981 16.8096C126.121 14.3998 122.587 12.9308 118.862 12.6028L118.871 19.9603Z" fill="#D1D3D4"/>
<path d="M163.162 120.896H113.244L107.358 100.46V120.922H91.6998C90.0171 120.922 88.4033 121.59 87.2134 122.78C86.0236 123.97 85.3551 125.584 85.3551 127.267V144.483C85.3551 146.166 86.0236 147.78 87.2134 148.97C88.4033 150.159 90.0171 150.828 91.6998 150.828H163.162C164.845 150.828 166.459 150.159 167.649 148.97C168.839 147.78 169.507 146.166 169.507 144.483V127.241C169.505 125.559 168.836 123.946 167.646 122.757C166.457 121.568 164.844 120.898 163.162 120.896Z" fill="white"/>
<path d="M163.162 151.235H91.6999C89.9031 151.232 88.1805 150.517 86.91 149.247C85.6394 147.976 84.9247 146.254 84.9224 144.457V127.241C84.9247 125.444 85.6394 123.721 86.91 122.451C88.1805 121.18 89.9031 120.465 91.6999 120.463H106.925V100.459C106.926 100.355 106.964 100.254 107.032 100.175C107.1 100.096 107.194 100.043 107.298 100.027C107.401 100.014 107.506 100.039 107.593 100.096C107.68 100.153 107.744 100.239 107.774 100.338L113.565 120.489H163.162C164.959 120.494 166.68 121.209 167.95 122.479C169.22 123.749 169.935 125.47 169.94 127.267V144.483C169.931 146.275 169.213 147.991 167.943 149.256C166.673 150.521 164.955 151.232 163.162 151.235ZM91.6999 121.329C90.1326 121.331 88.6303 121.955 87.522 123.063C86.4138 124.171 85.7902 125.673 85.7879 127.241V144.457C85.7902 146.024 86.4138 147.527 87.522 148.635C88.6303 149.743 90.1326 150.367 91.6999 150.369H163.162C164.729 150.364 166.23 149.74 167.338 148.632C168.445 147.525 169.07 146.024 169.074 144.457V127.241C169.07 125.674 168.445 124.173 167.338 123.065C166.23 121.958 164.729 121.333 163.162 121.329H113.244C113.15 121.332 113.057 121.302 112.982 121.246C112.906 121.189 112.852 121.108 112.829 121.017L107.791 103.506V120.896C107.791 121.011 107.745 121.121 107.664 121.202C107.583 121.283 107.473 121.329 107.358 121.329H91.6999Z" fill="#231F20"/>
<path d="M156.013 129.171H111.868C111.753 129.171 111.643 129.125 111.562 129.044C111.481 128.963 111.435 128.853 111.435 128.738C111.435 128.623 111.481 128.513 111.562 128.432C111.643 128.351 111.753 128.305 111.868 128.305H156.013C156.127 128.305 156.238 128.351 156.319 128.432C156.4 128.513 156.445 128.623 156.445 128.738C156.445 128.853 156.4 128.963 156.319 129.044C156.238 129.125 156.127 129.171 156.013 129.171Z" fill="#D1D3D4"/>
<path d="M156.013 136.286H111.868C111.753 136.286 111.643 136.24 111.562 136.159C111.481 136.078 111.435 135.968 111.435 135.853C111.435 135.738 111.481 135.628 111.562 135.547C111.643 135.466 111.753 135.42 111.868 135.42H156.013C156.127 135.42 156.238 135.466 156.319 135.547C156.4 135.628 156.445 135.738 156.445 135.853C156.443 135.967 156.397 136.076 156.316 136.157C156.236 136.237 156.127 136.284 156.013 136.286Z" fill="#D1D3D4"/>
<path d="M146.335 143.392H111.833C111.719 143.392 111.608 143.347 111.527 143.266C111.446 143.184 111.401 143.074 111.401 142.96C111.401 142.845 111.446 142.735 111.527 142.654C111.608 142.572 111.719 142.527 111.833 142.527H146.335C146.45 142.527 146.56 142.572 146.641 142.654C146.723 142.735 146.768 142.845 146.768 142.96C146.768 143.074 146.723 143.184 146.641 143.266C146.56 143.347 146.45 143.392 146.335 143.392Z" fill="#D1D3D4"/>
<path d="M236.451 14.4379H217.885C216.61 14.4379 215.389 14.944 214.488 15.8449C213.587 16.7458 213.081 17.9678 213.081 19.2418V33.0306L198.781 37.6095H213.081V37.8432C213.079 38.4748 213.203 39.1004 213.444 39.6843C213.685 40.2681 214.038 40.7988 214.485 41.2458C214.931 41.6928 215.461 42.0474 216.044 42.2894C216.628 42.5313 217.253 42.6559 217.885 42.6559H236.486C237.756 42.6467 238.97 42.1354 239.864 41.2336C240.757 40.3318 241.258 39.1129 241.255 37.8432V19.2418C241.255 17.9678 240.749 16.7458 239.848 15.8449C238.947 14.944 237.725 14.4379 236.451 14.4379Z" fill="white"/>
<path d="M236.451 43.0801H217.885C216.538 43.0678 215.247 42.5378 214.28 41.6C213.313 40.6621 212.744 39.3883 212.691 38.0424H198.842C198.739 38.0453 198.638 38.0097 198.559 37.9425C198.481 37.8753 198.431 37.7813 198.418 37.6788C198.401 37.5773 198.421 37.473 198.475 37.3854C198.529 37.2978 198.613 37.2328 198.712 37.2027L212.708 32.7104V19.2419C212.72 17.868 213.271 16.5536 214.242 15.582C215.214 14.6105 216.528 14.0597 217.902 14.0484H236.503C237.885 14.0484 239.21 14.5941 240.191 15.5669C241.172 16.5396 241.729 17.8605 241.74 19.2419V37.8433C241.74 38.5354 241.603 39.2206 241.337 39.8594C241.07 40.4981 240.68 41.0778 240.188 41.5647C239.696 42.0517 239.113 42.4363 238.471 42.6964C237.83 42.9565 237.143 43.0869 236.451 43.0801ZM201.516 37.1768H213.046C213.16 37.179 213.269 37.2253 213.35 37.306C213.43 37.3867 213.477 37.4955 213.479 37.6096V37.8433C213.479 38.9911 213.935 40.0919 214.746 40.9036C215.558 41.7152 216.659 42.1712 217.807 42.1712H236.408C236.98 42.1769 237.547 42.0692 238.078 41.8543C238.608 41.6393 239.09 41.3214 239.496 40.919C239.903 40.5165 240.226 40.0375 240.446 39.5096C240.666 38.9816 240.779 38.4153 240.779 37.8433V19.2419C240.766 18.0908 240.299 16.9914 239.481 16.1814C238.663 15.3715 237.559 14.9162 236.408 14.914H217.885C216.741 14.9275 215.648 15.3878 214.839 16.1965C214.03 17.0052 213.57 18.0983 213.557 19.2419V33.0306C213.558 33.1224 213.529 33.2121 213.474 33.2856C213.42 33.3592 213.342 33.4126 213.254 33.4375L201.516 37.1768Z" fill="#231F20"/>
<path d="M235.196 23.0417H220.005C219.891 23.0417 219.78 22.9961 219.699 22.9149C219.618 22.8338 219.573 22.7237 219.573 22.6089C219.573 22.4941 219.618 22.384 219.699 22.3029C219.78 22.2217 219.891 22.1761 220.005 22.1761H235.196C235.311 22.1761 235.421 22.2217 235.502 22.3029C235.583 22.384 235.629 22.4941 235.629 22.6089C235.629 22.7237 235.583 22.8338 235.502 22.9149C235.421 22.9961 235.311 23.0417 235.196 23.0417Z" fill="#D1D3D4"/>
<path d="M235.196 29.075H220.005C219.891 29.075 219.78 29.0294 219.699 28.9482C219.618 28.8671 219.573 28.757 219.573 28.6422C219.573 28.5274 219.618 28.4173 219.699 28.3362C219.78 28.255 219.891 28.2094 220.005 28.2094H235.196C235.311 28.2094 235.421 28.255 235.502 28.3362C235.583 28.4173 235.629 28.5274 235.629 28.6422C235.629 28.757 235.583 28.8671 235.502 28.9482C235.421 29.0294 235.311 29.075 235.196 29.075Z" fill="#D1D3D4"/>
<path d="M231.327 35.1081H220.005C219.891 35.1081 219.78 35.0625 219.699 34.9813C219.618 34.9002 219.573 34.7901 219.573 34.6753C219.573 34.5605 219.618 34.4504 219.699 34.3693C219.78 34.2881 219.891 34.2425 220.005 34.2425H231.327C231.441 34.2447 231.55 34.291 231.631 34.3717C231.711 34.4524 231.758 34.5612 231.76 34.6753C231.76 34.7901 231.714 34.9002 231.633 34.9813C231.552 35.0625 231.442 35.1081 231.327 35.1081Z" fill="#D1D3D4"/>
<path d="M42.933 63.4732H30.9187V33.4548C30.9187 32.4493 30.5192 31.485 29.8082 30.774C29.0972 30.063 28.1329 29.6635 27.1274 29.6635H4.22409C3.21858 29.6635 2.25426 30.063 1.54326 30.774C0.832265 31.485 0.432828 32.4493 0.432828 33.4548V79.3307C0.429403 79.8308 0.524941 80.3266 0.713935 80.7895C0.90293 81.2525 1.18165 81.6735 1.53404 82.0283C1.88643 82.3831 2.30553 82.6647 2.76721 82.8569C3.22889 83.049 3.72402 83.1479 4.22409 83.1479H27.1188C27.6174 83.1491 28.1113 83.0518 28.5723 82.8618C29.0332 82.6718 29.4522 82.3927 29.8052 82.0406C30.1581 81.6884 30.4382 81.2701 30.6292 80.8095C30.8203 80.349 30.9187 79.8553 30.9187 79.3567V68.9697L42.933 63.4732Z" fill="white"/>
<path d="M27.1187 83.5807H4.22405C3.10447 83.5785 2.03139 83.1327 1.23972 82.341C0.448055 81.5494 0.00228721 80.4763 0 79.3567V33.4808C0.00228721 32.3612 0.448055 31.2881 1.23972 30.4965C2.03139 29.7048 3.10447 29.259 4.22405 29.2567H27.1187C28.2383 29.259 29.3114 29.7048 30.103 30.4965C30.8947 31.2881 31.3405 32.3612 31.3428 33.4808V63.0664H42.9329C43.0319 63.0643 43.1285 63.097 43.206 63.1586C43.2834 63.2203 43.3369 63.3071 43.3571 63.404C43.3779 63.5003 43.3652 63.6009 43.3211 63.689C43.2771 63.7771 43.2042 63.8476 43.1147 63.8887L31.3428 69.2553V79.3827C31.3336 80.4977 30.8849 81.5642 30.0939 82.3502C29.303 83.1363 28.2338 83.5785 27.1187 83.5807ZM4.22405 30.0964C3.33333 30.0964 2.47909 30.4502 1.84925 31.08C1.21942 31.7099 0.865583 32.5641 0.865583 33.4548V79.3307C0.865583 80.2214 1.21942 81.0757 1.84925 81.7055C2.47909 82.3354 3.33333 82.6892 4.22405 82.6892H27.1187C28.0094 82.6892 28.8637 82.3354 29.4935 81.7055C30.1233 81.0757 30.4772 80.2214 30.4772 79.3307V68.9437C30.4761 68.8602 30.4993 68.7782 30.5438 68.7075C30.5884 68.6369 30.6524 68.5806 30.7282 68.5456L40.9421 63.8974H30.9186C30.8038 63.8974 30.6938 63.8518 30.6126 63.7706C30.5314 63.6895 30.4858 63.5794 30.4858 63.4646V33.4548C30.4858 32.5641 30.132 31.7099 29.5022 31.08C28.8723 30.4502 28.0181 30.0964 27.1274 30.0964H4.22405Z" fill="#231F20"/>
<path d="M5.02039 37.1681H26.4695V49.0266H5.02039V37.1681Z" fill="white"/>
<path d="M26.4696 49.4594H5.02044C4.90565 49.4594 4.79557 49.4138 4.71441 49.3326C4.63324 49.2514 4.58765 49.1414 4.58765 49.0266V37.1681C4.58765 37.0533 4.63324 36.9432 4.71441 36.8621C4.79557 36.7809 4.90565 36.7353 5.02044 36.7353H26.4696C26.5844 36.7353 26.6945 36.7809 26.7756 36.8621C26.8568 36.9432 26.9024 37.0533 26.9024 37.1681V49.0266C26.9024 49.1414 26.8568 49.2514 26.7756 49.3326C26.6945 49.4138 26.5844 49.4594 26.4696 49.4594ZM5.45323 48.5938H26.0368V37.6009H5.45323V48.5938Z" fill="#D1D3D4"/>
<path d="M26.4696 53.4324H5.02044C4.90565 53.4324 4.79557 53.3868 4.71441 53.3056C4.63324 53.2244 4.58765 53.1143 4.58765 52.9996C4.58765 52.8848 4.63324 52.7747 4.71441 52.6935C4.79557 52.6124 4.90565 52.5668 5.02044 52.5668H26.4696C26.5844 52.5668 26.6945 52.6124 26.7756 52.6935C26.8568 52.7747 26.9024 52.8848 26.9024 52.9996C26.9024 53.1143 26.8568 53.2244 26.7756 53.3056C26.6945 53.3868 26.5844 53.4324 26.4696 53.4324Z" fill="#D1D3D4"/>
<path d="M26.4696 59.0933H5.02044C4.90565 59.0933 4.79557 59.0477 4.71441 58.9665C4.63324 58.8854 4.58765 58.7753 4.58765 58.6605C4.58765 58.5457 4.63324 58.4356 4.71441 58.3545C4.79557 58.2733 4.90565 58.2277 5.02044 58.2277H26.4696C26.5844 58.2277 26.6945 58.2733 26.7756 58.3545C26.8568 58.4356 26.9024 58.5457 26.9024 58.6605C26.9024 58.7753 26.8568 58.8854 26.7756 58.9665C26.6945 59.0477 26.5844 59.0933 26.4696 59.0933Z" fill="#D1D3D4"/>
<path d="M26.4696 64.7543H5.02044C4.90565 64.7543 4.79557 64.7087 4.71441 64.6275C4.63324 64.5463 4.58765 64.4362 4.58765 64.3215C4.58765 64.2067 4.63324 64.0966 4.71441 64.0154C4.79557 63.9343 4.90565 63.8887 5.02044 63.8887H26.4696C26.5844 63.8887 26.6945 63.9343 26.7756 64.0154C26.8568 64.0966 26.9024 64.2067 26.9024 64.3215C26.9024 64.4362 26.8568 64.5463 26.7756 64.6275C26.6945 64.7087 26.5844 64.7543 26.4696 64.7543Z" fill="#D1D3D4"/>
<path d="M26.4696 70.415H5.02044C4.90635 70.4128 4.79755 70.3665 4.71686 70.2858C4.63617 70.2051 4.58986 70.0963 4.58765 69.9822C4.58765 69.8674 4.63324 69.7573 4.71441 69.6762C4.79557 69.595 4.90565 69.5494 5.02044 69.5494H26.4696C26.5844 69.5494 26.6945 69.595 26.7756 69.6762C26.8568 69.7573 26.9024 69.8674 26.9024 69.9822C26.9002 70.0963 26.8539 70.2051 26.7732 70.2858C26.6925 70.3665 26.5837 70.4128 26.4696 70.415Z" fill="#D1D3D4"/>
<path d="M20.8606 76.0759H5.02044C4.90635 76.0737 4.79755 76.0274 4.71686 75.9467C4.63617 75.866 4.58986 75.7572 4.58765 75.6431C4.58765 75.5284 4.63324 75.4183 4.71441 75.3371C4.79557 75.2559 4.90565 75.2104 5.02044 75.2104H20.8606C20.9754 75.2104 21.0855 75.2559 21.1666 75.3371C21.2478 75.4183 21.2934 75.5284 21.2934 75.6431C21.2934 75.7579 21.2478 75.868 21.1666 75.9492C21.0855 76.0303 20.9754 76.0759 20.8606 76.0759Z" fill="#D1D3D4"/>
<path d="M99.7498 143.713C104.09 143.713 107.609 140.194 107.609 135.853C107.609 131.512 104.09 127.994 99.7498 127.994C95.4091 127.994 91.8903 131.512 91.8903 135.853C91.8903 140.194 95.4091 143.713 99.7498 143.713Z" fill="white"/>
<path d="M99.7498 144.145C98.1097 144.145 96.5065 143.659 95.1429 142.748C93.7792 141.837 92.7164 140.542 92.0887 139.026C91.4611 137.511 91.2969 135.844 91.6169 134.235C91.9368 132.627 92.7266 131.149 93.8863 129.99C95.046 128.83 96.5235 128.04 98.1321 127.72C99.7406 127.4 101.408 127.564 102.923 128.192C104.438 128.82 105.733 129.883 106.645 131.246C107.556 132.61 108.042 134.213 108.042 135.853C108.04 138.052 107.165 140.16 105.611 141.714C104.056 143.269 101.948 144.143 99.7498 144.145ZM99.7498 128.426C98.2809 128.426 96.8451 128.862 95.6237 129.678C94.4024 130.494 93.4505 131.654 92.8884 133.011C92.3263 134.368 92.1792 135.861 92.4658 137.302C92.7524 138.743 93.4597 140.066 94.4983 141.105C95.537 142.143 96.8603 142.851 98.3009 143.137C99.7416 143.424 101.235 143.277 102.592 142.715C103.949 142.152 105.109 141.201 105.925 139.979C106.741 138.758 107.177 137.322 107.177 135.853C107.177 134.878 106.984 133.912 106.611 133.011C106.238 132.11 105.691 131.291 105.001 130.602C104.312 129.912 103.493 129.365 102.592 128.992C101.691 128.619 100.725 128.426 99.7498 128.426Z" fill="#D1D3D4"/>
<path d="M102.563 128.738L99.7498 135.853L104.71 141.947" fill="white"/>
<path d="M104.71 142.38C104.646 142.38 104.583 142.365 104.526 142.337C104.468 142.308 104.419 142.267 104.381 142.215L99.4209 136.156C99.3702 136.098 99.3368 136.026 99.3246 135.95C99.3123 135.873 99.3217 135.795 99.3516 135.723L102.165 128.617C102.206 128.511 102.287 128.425 102.39 128.378C102.494 128.331 102.612 128.327 102.719 128.366C102.826 128.409 102.912 128.491 102.959 128.596C103.006 128.701 103.01 128.821 102.97 128.929L100.252 135.853L105.047 141.748C105.119 141.838 105.154 141.953 105.142 142.068C105.131 142.182 105.075 142.288 104.987 142.362C104.898 142.397 104.801 142.403 104.71 142.38Z" fill="#D1D3D4"/>
<path d="M99.7498 135.853L92.7385 139.385L99.7498 135.853Z" fill="white"/>
<path d="M92.7385 139.818C92.6427 139.816 92.5501 139.783 92.4752 139.723C92.4003 139.664 92.3473 139.581 92.3245 139.488C92.3018 139.395 92.3105 139.297 92.3494 139.209C92.3883 139.122 92.4551 139.05 92.5395 139.004L99.5593 135.464C99.6602 135.422 99.7732 135.42 99.8757 135.457C99.9783 135.495 100.063 135.571 100.112 135.668C100.161 135.766 100.172 135.878 100.142 135.983C100.111 136.088 100.042 136.178 99.9488 136.234L92.929 139.774C92.8703 139.805 92.8047 139.82 92.7385 139.818Z" fill="#D1D3D4"/>
</svg>
