<svg width="286" height="191" viewBox="0 0 286 191" fill="none" xmlns="http://www.w3.org/2000/svg">
<mask id="mask0_241_614" style="mask-type:luminance" maskUnits="userSpaceOnUse" x="0" y="0" width="286" height="191">
<path d="M0 0H286V191H0V0Z" fill="white"/>
</mask>
<g mask="url(#mask0_241_614)">
<path d="M34.9445 152.023C34.4434 153.117 33.8757 154.159 33.0144 154.971C32.3606 155.59 31.3485 156.009 30.4598 155.643C29.3322 155.177 28.7449 154.033 27.7113 153.443C27.036 153.058 26.0102 153.073 25.6344 153.741C25.4406 154.084 25.4738 154.502 25.513 154.893C25.7146 156.939 28.2751 163.565 25.3153 164.752C24.1036 165.237 22.8899 163.749 21.7153 163.598C21.5431 163.575 21.3434 163.577 21.224 163.701C21.1437 163.783 21.1183 163.903 21.1026 164.016C20.852 165.807 21.9816 167.462 22.7235 169.12C23.1424 170.059 23.1326 171.837 21.6057 171.045C21.2083 170.839 20.8148 170.553 20.3666 170.578C19.4759 170.627 19.1725 171.795 19.3545 172.648C19.7069 174.297 20.8462 175.562 22.007 176.819C23.7179 178.674 25.1626 180.465 24.8846 183.091C24.7417 184.438 23.7708 187.025 25.327 187.947C26.8872 188.871 28.5081 188.041 29.9234 186.945C32.4428 183.827 34.2026 180.105 34.7938 175.499C36.1054 168.236 34.5413 159.702 34.9445 152.023Z" fill="#CF6BE3"/>
<path d="M44.9809 164.707C44.5992 163.867 45.0122 162.877 45.5995 162.159C46.1887 161.442 46.9542 160.864 47.4475 160.079C49.0566 157.523 46.132 157.488 44.5757 156.414C43.7751 155.861 43.3561 154.895 43.2602 153.943C43.1271 152.644 43.411 151.165 43.7555 149.907C44.1274 148.549 44.6658 146.956 43.7614 145.862C41.7862 143.473 38.2587 146.156 36.9902 147.923C36.119 149.135 35.5885 150.623 34.9445 152.025C34.5412 159.704 36.1034 168.238 34.7899 175.499C34.1987 180.105 32.4388 183.828 29.9194 186.945C30.7925 186.27 31.5892 185.493 32.2411 184.963C34.5745 183.074 37.0685 181.305 39.8619 180.116C41.2361 179.531 42.7943 179.239 44.0785 178.473C44.8791 177.996 45.5682 177.273 45.7894 176.384C46.4041 173.911 43.5402 172.335 46.7329 170.538C47.3926 170.166 48.1032 169.814 48.5496 169.212C50.3368 166.802 45.6759 166.237 44.9809 164.707Z" fill="#CF6BE3"/>
<path fill-rule="evenodd" clip-rule="evenodd" d="M25.0392 188.403C25.603 188.737 26.1707 188.878 26.7325 188.878C28.6255 188.878 30.4303 187.275 31.7223 186.121L31.7321 186.112C32.0399 185.839 32.328 185.583 32.5915 185.369C34.5079 183.818 37.088 181.874 40.0792 180.601C40.5862 180.385 41.1167 180.212 41.6785 180.028L41.6791 180.028C42.5852 179.733 43.5208 179.427 44.3643 178.924C45.392 178.311 46.0889 177.451 46.3238 176.502C46.5957 175.413 46.2811 174.469 46.0286 173.712L46.0282 173.711L46.027 173.707C45.6363 172.534 45.421 171.888 47.0089 170.994L47.2223 170.875L47.2272 170.873C47.8368 170.534 48.5294 170.149 48.9959 169.519C49.4285 168.935 49.5871 168.366 49.4637 167.828C49.2386 166.834 48.158 166.244 47.1127 165.676C46.4334 165.306 45.6641 164.886 45.482 164.485C45.1943 163.854 45.576 163.041 46.0282 162.489C46.2475 162.224 46.4921 161.978 46.7525 161.717L46.7676 161.701C47.172 161.294 47.5905 160.872 47.9153 160.356C48.4243 159.547 48.577 158.868 48.3851 158.28C48.0973 157.402 47.1421 157.005 46.2181 156.624C45.7463 156.429 45.2589 156.227 44.8909 155.973C44.2938 155.561 43.8984 154.802 43.8044 153.888C43.7026 152.873 43.8631 151.579 44.284 150.043L44.3662 149.743C44.7382 148.409 45.2002 146.749 44.1861 145.523C43.5401 144.742 42.6788 144.349 41.6805 144.38C39.5741 144.448 37.4071 146.398 36.536 147.612C35.8508 148.568 35.3712 149.678 34.9073 150.753C34.2789 152.21 33.6858 153.586 32.6287 154.584C32.1256 155.059 31.3269 155.418 30.6711 155.147C30.1576 154.934 29.7532 154.527 29.3237 154.095L29.3204 154.092L29.3132 154.085C28.922 153.69 28.5164 153.281 27.9873 152.979C27.4372 152.666 26.7384 152.569 26.1609 152.726C25.7087 152.848 25.3583 153.111 25.1488 153.483C24.8695 153.98 24.9227 154.53 24.9619 154.934L24.9629 154.945C25.0134 155.449 25.1874 156.175 25.3892 157.016L25.3935 157.034L25.3951 157.041C25.9767 159.467 26.948 163.519 25.1038 164.258C24.6653 164.434 24.1524 164.17 23.4203 163.749C22.9016 163.449 22.3652 163.14 21.7838 163.066C21.3688 163.014 21.0438 163.102 20.8207 163.331C20.6327 163.525 20.5799 163.758 20.5544 163.941C20.3352 165.514 21.038 166.928 21.7172 168.294L21.7437 168.347C21.9071 168.676 22.0696 169.004 22.2164 169.332C22.4787 169.919 22.4337 170.612 22.3025 170.702C22.3025 170.702 22.3021 170.702 22.3018 170.702C22.2908 170.705 22.1753 170.733 21.8601 170.57C21.7877 170.532 21.7133 170.492 21.6409 170.45C21.2905 170.253 20.85 170.013 20.3313 170.04C19.8869 170.064 19.5032 170.267 19.2194 170.627C18.8083 171.15 18.6478 171.984 18.8122 172.753C19.2037 174.581 20.4722 175.958 21.5939 177.174C23.2441 178.962 24.589 180.637 24.3345 183.034C24.3081 183.293 24.247 183.602 24.1812 183.935L24.174 183.972C23.8823 185.453 23.4829 187.481 25.0392 188.403ZM25.4288 183.144C25.7283 180.315 24.172 178.367 22.4122 176.458C21.3335 175.289 20.2197 174.079 19.8928 172.535C19.7969 172.081 19.881 171.553 20.0964 171.28C20.2079 171.139 20.3156 171.114 20.3978 171.11C20.6059 171.103 20.833 171.23 21.0867 171.372L21.0986 171.379C21.1828 171.427 21.265 171.473 21.3492 171.516C22.2751 171.995 22.8154 171.703 23.0562 171.486C23.7453 170.864 23.5299 169.57 23.2304 168.902C23.0781 168.562 22.9098 168.221 22.7408 167.879L22.7136 167.824C22.0833 166.559 21.4901 165.363 21.6448 164.128C22.005 164.174 22.4219 164.415 22.8644 164.67C23.6533 165.126 24.5479 165.641 25.5266 165.248C28.2379 164.162 27.1745 159.731 26.4698 156.795L26.4682 156.788L26.459 156.749C26.2691 155.955 26.1055 155.27 26.063 154.842C26.0297 154.496 26.0102 154.195 26.1198 153.998C26.1824 153.884 26.2979 153.804 26.4584 153.76C26.7482 153.68 27.1436 153.741 27.4353 153.907C27.8366 154.136 28.1752 154.477 28.5335 154.84L28.5446 154.851C29.0285 155.338 29.5295 155.842 30.2463 156.137C31.4404 156.628 32.6913 156.025 33.398 155.357C34.6131 154.21 35.2763 152.674 35.9182 151.187L35.9252 151.17C36.3852 150.1 36.8218 149.091 37.4404 148.228C38.2449 147.106 40.1046 145.505 41.7216 145.452C42.3617 145.433 42.9 145.673 43.3326 146.196C43.9943 146.997 43.6458 148.251 43.3072 149.463L43.223 149.768C42.761 151.451 42.5946 152.834 42.7121 153.994C42.8374 155.218 43.4012 156.257 44.2586 156.849C44.7225 157.168 45.2648 157.393 45.7894 157.61L45.7906 157.611C46.4851 157.899 47.2027 158.196 47.3378 158.606C47.4474 158.94 47.2027 159.438 46.9776 159.795C46.7114 160.217 46.3473 160.583 45.9616 160.97L45.9297 161.003C45.6735 161.262 45.4094 161.528 45.1688 161.821C44.3212 162.854 44.0628 164.012 44.4759 164.922C44.8061 165.65 45.6633 166.117 46.572 166.612L46.5763 166.615L46.5783 166.616C47.3725 167.048 48.2716 167.538 48.391 168.063C48.4419 168.292 48.3499 168.563 48.1052 168.893C47.7763 169.336 47.2439 169.633 46.6781 169.946L46.4589 170.068C44.098 171.398 44.5679 172.806 44.9829 174.047L44.986 174.056C45.216 174.748 45.4537 175.462 45.2569 176.254C45.0318 177.159 44.2429 177.744 43.7927 178.014C43.0609 178.452 42.2284 178.724 41.3473 179.012L41.332 179.017L41.3308 179.018C40.7714 179.201 40.1943 179.389 39.6426 179.624C36.5242 180.95 33.8619 182.954 31.8907 184.549C31.6129 184.776 31.3095 185.045 30.9847 185.333L30.9843 185.333C29.3772 186.76 27.3746 188.535 25.6089 187.487C24.7072 186.955 25.0081 185.422 25.2504 184.188L25.2526 184.177C25.3289 183.793 25.3974 183.44 25.4288 183.144Z" fill="#80358F"/>
<path d="M26.433 190.042C26.3684 190.042 26.3038 190.031 26.2392 190.008C25.9554 189.903 25.8105 189.594 25.9182 189.317L37.6342 158.952C37.7419 158.675 38.059 158.534 38.3428 158.639C38.6267 158.744 38.7715 159.053 38.6639 159.33L26.9479 189.695C26.8637 189.91 26.6562 190.042 26.433 190.042Z" fill="white"/>
<path d="M34.7293 169.049C34.5512 169.049 34.3769 168.965 34.2712 168.811C34.1029 168.565 34.1714 168.231 34.4239 168.067L40.1243 164.363C40.3788 164.199 40.7194 164.266 40.8878 164.512C41.0561 164.758 40.9876 165.092 40.7351 165.256L35.0347 168.96C34.9387 169.021 34.833 169.049 34.7293 169.049Z" fill="white"/>
<path d="M30.5967 180.101C30.4186 180.101 30.2444 180.017 30.1387 179.862C29.9703 179.616 30.0388 179.282 30.2913 179.118L35.9918 175.415C36.2462 175.251 36.5869 175.317 36.7552 175.564C36.9236 175.81 36.8551 176.144 36.6025 176.308L30.9021 180.011C30.8081 180.072 30.7024 180.101 30.5967 180.101Z" fill="white"/>
<path d="M31.9613 174.671C31.7792 174.671 31.603 174.583 31.4973 174.424L27.87 168.906C27.7075 168.656 27.7819 168.326 28.0364 168.166C28.2908 168.006 28.6315 168.078 28.7959 168.328L32.4233 173.846C32.5857 174.096 32.5114 174.426 32.2569 174.587C32.1649 174.644 32.0631 174.671 31.9613 174.671Z" fill="white"/>
<path d="M16.4534 183.362C14.9872 181.217 17.9196 176.928 15.7193 174.783C12.0567 171.213 8.03198 167.275 5.75337 162.461C5.71618 162.558 5.68486 162.657 5.66724 162.758C5.52825 163.52 5.8904 164.271 6.07441 165.023C6.25842 165.775 6.17229 166.733 5.46952 167.092C4.48879 167.595 3.27118 166.496 2.23172 166.874C1.48197 167.145 1.20987 168.103 1.44086 168.849C1.67186 169.595 2.26108 170.173 2.82486 170.727C4.3498 172.221 5.83363 173.753 7.27244 175.323C7.65808 175.745 7.98695 176.516 7.46428 176.76C7.30768 176.834 7.12367 176.817 6.94944 176.8C5.72597 176.674 4.50053 176.55 3.27705 176.424C2.53905 176.348 1.70122 176.302 1.1531 176.789C0.464039 177.397 0.642178 178.565 1.27643 179.227C1.91068 179.889 2.84835 180.172 3.74491 180.418C5.58698 180.923 6.62057 181.626 7.32725 183.41C8.93637 187.466 12.4189 188.56 16.3281 188.525C15.9425 188.462 15.5608 188.384 15.1927 188.296L18.9708 188.357C18.0782 188.457 17.1934 188.518 16.3281 188.525C18.3033 188.848 20.4175 188.764 21.5333 187.476C19.4857 186.73 17.7023 185.392 16.4534 183.362Z" fill="#CF6BE3"/>
<path d="M23.025 181.061C23.7023 180.208 25.0158 179.59 24.8729 178.519C24.7888 177.886 24.1839 177.447 23.5868 177.185C22.9898 176.924 22.3281 176.75 21.8524 176.311C20.95 175.474 21.0909 174.001 21.6762 172.928C22.2635 171.858 23.1992 171.003 23.8159 169.948C24.0214 169.597 24.1917 169.17 24.0253 168.799C23.8746 168.46 23.485 168.282 23.1131 168.212C22.0325 168.004 20.948 168.443 19.8694 168.652C18.7908 168.862 17.4557 168.74 16.9037 167.811C16.3106 166.815 16.9703 165.529 16.6845 164.413C16.3967 163.293 15.0284 162.566 13.9067 162.94C13.245 163.159 12.74 163.674 12.1586 164.052C11.5772 164.43 10.7824 164.668 10.199 164.292C9.50411 163.846 9.53152 162.848 9.10869 162.15C8.725 161.514 7.91457 161.152 7.1707 161.283C6.53058 161.396 5.97854 161.865 5.75146 162.457C8.03007 167.273 12.0568 171.211 15.7174 174.779C17.9177 176.924 14.9833 181.213 16.4515 183.358C17.7024 185.388 19.4857 186.726 21.5314 187.47C22.0051 186.922 22.3027 186.165 22.3262 185.119C22.3614 183.723 22.1441 182.167 23.025 181.061Z" fill="#CF6BE3"/>
<path fill-rule="evenodd" clip-rule="evenodd" d="M16.2988 189.063C16.8998 189.159 17.5301 189.222 18.1546 189.222C19.3526 189.222 20.5252 188.993 21.4119 188.332C22.3477 187.634 22.839 186.56 22.8742 185.14C22.8809 184.913 22.8791 184.682 22.8772 184.449C22.8768 184.41 22.8764 184.371 22.8762 184.331C22.8645 183.209 22.8566 182.148 23.4556 181.395C23.6397 181.164 23.8883 180.942 24.1525 180.708L24.1527 180.708C24.8085 180.126 25.5502 179.467 25.4152 178.456C25.3173 177.737 24.7476 177.113 23.808 176.703C23.6702 176.642 23.5308 176.588 23.3899 176.532C23.3707 176.525 23.3515 176.518 23.3323 176.51L23.3233 176.506C22.9038 176.342 22.5062 176.186 22.2283 175.928C21.5451 175.294 21.6762 174.069 22.1597 173.188C22.4406 172.676 22.8116 172.213 23.2043 171.723L23.2168 171.707C23.5907 171.242 23.9783 170.759 24.2935 170.221L24.2964 170.216C24.4323 169.98 24.8355 169.281 24.5284 168.593C24.3248 168.135 23.8589 167.815 23.2188 167.693C22.2958 167.516 21.4233 167.733 20.5763 167.944L20.5682 167.946C20.3001 168.015 20.0299 168.082 19.7598 168.135C18.918 168.301 17.7905 168.246 17.3774 167.551C17.1308 167.135 17.1836 166.599 17.2482 165.979C17.305 165.432 17.3637 164.865 17.2169 164.292C17.0427 163.613 16.5513 163.016 15.8701 162.653C15.1889 162.291 14.4058 162.213 13.7285 162.44C13.1961 162.615 12.7786 162.931 12.3737 163.237L12.3602 163.247C12.1938 163.373 12.0274 163.499 11.8532 163.613C11.4597 163.871 10.8685 164.086 10.5024 163.852C10.2362 163.682 10.1188 163.308 9.98565 162.877L9.98034 162.86C9.87828 162.535 9.7729 162.199 9.58239 161.884C9.0793 161.052 8.05353 160.591 7.07279 160.762C6.09793 160.932 5.29728 161.716 5.12306 162.667C4.99838 163.35 5.19751 164.004 5.37308 164.58L5.37559 164.588C5.38269 164.612 5.38982 164.635 5.39694 164.658C5.44682 164.822 5.49672 164.986 5.53611 165.149C5.67314 165.706 5.63007 166.405 5.21115 166.618C4.90186 166.777 4.46923 166.649 3.9681 166.5C3.37887 166.324 2.71134 166.126 2.03794 166.372C0.959328 166.763 0.612839 168.044 0.912346 169.005C1.1806 169.875 1.83877 170.521 2.42108 171.092L2.43337 171.104C3.94265 172.583 5.43236 174.123 6.86138 175.68C7.05909 175.895 7.16676 176.153 7.18242 176.279C7.1305 176.279 7.06999 176.273 7.02664 176.269C7.01931 176.269 7.01246 176.268 7.00624 176.268L3.33385 175.892C2.47448 175.804 1.4957 175.762 0.783147 176.392C0.405337 176.726 0.18609 177.204 0.162599 177.743C0.133236 178.408 0.399465 179.099 0.873195 179.593C1.58771 180.338 2.56844 180.65 3.5942 180.933C5.40691 181.431 6.21734 182.104 6.81244 183.602C8.60948 188.128 12.6186 189.09 16.2988 189.063ZM18.9435 188.107L18.9102 187.823C17.9999 187.924 17.1523 187.978 16.3575 187.987C15.9758 187.922 15.6234 187.848 15.3239 187.775L15.2769 187.964C11.3873 187.764 9.03819 186.237 7.84016 183.217C7.01407 181.131 5.71816 180.402 3.89371 179.902C2.99127 179.654 2.20042 179.406 1.67971 178.863C1.41152 178.584 1.24905 178.162 1.26471 177.788C1.27058 177.611 1.32148 177.365 1.52311 177.187C1.89896 176.855 2.56844 176.892 3.22031 176.958L6.8927 177.334L6.90513 177.335C7.10868 177.355 7.40969 177.383 7.70509 177.243C8.00068 177.103 8.19839 176.853 8.26299 176.54C8.37849 175.97 8.02221 175.335 7.68355 174.964C6.24083 173.394 4.73938 171.839 3.21444 170.347L3.19357 170.326C2.68321 169.823 2.15673 169.304 1.96747 168.692C1.81478 168.204 1.97921 167.538 2.42358 167.376C2.75085 167.258 3.1828 167.386 3.6442 167.523L3.65097 167.525C4.2911 167.715 5.01735 167.929 5.72599 167.567C6.73414 167.05 6.83201 165.807 6.61081 164.899C6.56714 164.714 6.51099 164.53 6.45489 164.346C6.44814 164.323 6.44136 164.301 6.43463 164.279L6.43253 164.272C6.27669 163.765 6.12962 163.287 6.20951 162.852C6.30151 162.35 6.75763 161.903 7.27247 161.814C7.78731 161.724 8.37457 161.986 8.63885 162.424C8.7639 162.629 8.84547 162.89 8.93185 163.167L8.9364 163.182C9.1067 163.733 9.3005 164.359 9.89952 164.743C10.5945 165.187 11.5537 165.098 12.4698 164.5C12.6656 164.373 12.8535 164.231 13.0414 164.088L13.0485 164.083C13.3982 163.818 13.727 163.568 14.0887 163.449C14.4802 163.319 14.9383 163.371 15.3494 163.588C15.7624 163.806 16.0561 164.155 16.1559 164.544C16.2573 164.934 16.2111 165.384 16.1624 165.859L16.1618 165.865L16.1617 165.865C16.0893 166.569 16.0073 167.367 16.4339 168.082C17.1405 169.267 18.7281 169.427 19.9849 169.181C20.2726 169.126 20.5624 169.053 20.8501 168.981C21.6136 168.79 22.332 168.61 23.0132 168.74C23.2755 168.792 23.4733 168.897 23.5261 169.017C23.5829 169.147 23.5183 169.385 23.3421 169.687C23.0661 170.156 22.7216 170.587 22.3555 171.043C21.9464 171.553 21.5255 172.079 21.1966 172.678C20.5389 173.879 20.3451 175.651 21.4785 176.701C21.9111 177.101 22.4279 177.304 22.931 177.5C22.9486 177.507 22.9663 177.514 22.9839 177.521C23.1127 177.571 23.2399 177.62 23.3656 177.676C23.6357 177.794 24.268 178.118 24.3307 178.59C24.3874 179.015 24.0233 179.372 23.4184 179.91C23.1307 180.164 22.8331 180.429 22.5924 180.733C21.761 181.777 21.7721 183.128 21.7819 184.324V184.335V184.336C21.7839 184.597 21.7858 184.856 21.78 185.11C21.7526 186.203 21.4159 186.978 20.7483 187.476C20.257 187.842 19.6227 188.031 18.9435 188.107Z" fill="#80358F"/>
<path d="M19.6579 189.342C19.4347 189.342 19.2253 189.208 19.143 188.995L12.3581 171.412C12.2505 171.135 12.3953 170.826 12.6792 170.721C12.963 170.616 13.2801 170.757 13.3878 171.034L20.1727 188.617C20.2804 188.893 20.1355 189.203 19.8517 189.308C19.7871 189.33 19.7205 189.342 19.6579 189.342Z" fill="white"/>
<path d="M14.8523 177.185C14.7485 177.185 14.6408 177.157 14.5469 177.096L11.2464 174.951C10.9939 174.787 10.9254 174.453 11.0937 174.207C11.2621 173.961 11.6047 173.894 11.8572 174.058L15.1576 176.203C15.4102 176.367 15.4787 176.701 15.3103 176.947C15.2046 177.101 15.0304 177.185 14.8523 177.185Z" fill="white"/>
<path d="M17.2443 183.585C17.1406 183.585 17.0329 183.556 16.939 183.495L13.6385 181.351C13.386 181.187 13.3175 180.853 13.4858 180.607C13.6542 180.36 13.9948 180.294 14.2493 180.458L17.5497 182.602C17.8022 182.767 17.8708 183.1 17.7024 183.347C17.5967 183.501 17.4225 183.585 17.2443 183.585Z" fill="white"/>
<path d="M16.4554 180.441C16.3536 180.441 16.2518 180.414 16.1598 180.357C15.9033 180.196 15.829 179.864 15.9934 179.616L18.0939 176.42C18.2583 176.17 18.5989 176.098 18.8534 176.258C19.1098 176.418 19.1842 176.75 19.0198 176.998L16.9193 180.194C16.8136 180.355 16.6355 180.441 16.4554 180.441Z" fill="white"/>
<path d="M15.1929 188.294C15.5589 188.382 15.9407 188.46 16.3283 188.523C17.1935 188.516 18.0803 188.455 18.971 188.355L15.1929 188.294Z" fill="#CF6BE3"/>
<path d="M23.5047 144.116C24.6377 144.116 25.5562 143.221 25.5562 142.117C25.5562 141.012 24.6377 140.117 23.5047 140.117C22.3716 140.117 21.4531 141.012 21.4531 142.117C21.4531 143.221 22.3716 144.116 23.5047 144.116Z" fill="#7732AD"/>
<path d="M13.6248 142.493C14.7578 142.493 15.6763 141.597 15.6763 140.493C15.6763 139.388 14.7578 138.493 13.6248 138.493C12.4918 138.493 11.5732 139.388 11.5732 140.493C11.5732 141.597 12.4918 142.493 13.6248 142.493Z" fill="#7732AD"/>
<path d="M15.0147 152.886C16.1477 152.886 17.0662 151.991 17.0662 150.886C17.0662 149.782 16.1477 148.886 15.0147 148.886C13.8816 148.886 12.9631 149.782 12.9631 150.886C12.9631 151.991 13.8816 152.886 15.0147 152.886Z" fill="#7732AD"/>
<path d="M276.604 145.261H97.2363C92.3952 145.261 88.4351 141.401 88.4351 136.682V9.16077C88.4351 4.44206 92.3952 0.582001 97.2363 0.582001H276.604C281.445 0.582001 285.405 4.44206 285.405 9.16077V136.682C285.405 141.399 281.445 145.261 276.604 145.261Z" fill="#E6E7E8"/>
<path fill-rule="evenodd" clip-rule="evenodd" d="M97.2363 145.797H276.604C281.76 145.797 285.957 141.708 285.955 136.68V9.16073C285.955 4.13482 281.76 0.0457764 276.604 0.0457764H97.2363C92.0801 0.0457764 87.885 4.13482 87.885 9.16073V136.682C87.885 141.708 92.0801 145.797 97.2363 145.797ZM88.9852 9.15882C88.9852 4.72442 92.6869 1.11622 97.2363 1.11622V1.11812H276.604C281.153 1.11812 284.855 4.72633 284.855 9.16073V136.678C284.855 141.113 281.153 144.721 276.604 144.721H97.2363C92.6869 144.721 88.9852 141.113 88.9852 136.678V9.15882Z" fill="#80358F"/>
<path d="M271.103 133.192H101.889C97.0483 133.192 93.0881 129.332 93.0881 124.614V15.4517C93.0881 10.733 97.0483 6.87292 101.889 6.87292H271.103C275.944 6.87292 279.904 10.733 279.904 15.4517V124.614C279.904 129.332 275.944 133.192 271.103 133.192Z" fill="white"/>
<path d="M197.324 138.661H183.51C183.173 138.661 182.899 138.392 182.899 138.066C182.899 137.738 183.175 137.47 183.51 137.47H197.324C197.661 137.47 197.935 137.739 197.935 138.066C197.935 138.392 197.661 138.661 197.324 138.661Z" fill="#80358F"/>
<path d="M98.9453 5.44184C99.7042 5.44184 100.319 4.84213 100.319 4.10236C100.319 3.36257 99.7042 2.76288 98.9453 2.76288C98.1863 2.76288 97.571 3.36257 97.571 4.10236C97.571 4.84213 98.1863 5.44184 98.9453 5.44184Z" fill="#80358F"/>
<path d="M104.861 5.44184C105.62 5.44184 106.235 4.84213 106.235 4.10236C106.235 3.36257 105.62 2.76288 104.861 2.76288C104.102 2.76288 103.487 3.36257 103.487 4.10236C103.487 4.84213 104.102 5.44184 104.861 5.44184Z" fill="#CF6BE3"/>
<path d="M110.831 5.44184C111.59 5.44184 112.206 4.84213 112.206 4.10236C112.206 3.36257 111.59 2.76288 110.831 2.76288C110.073 2.76288 109.457 3.36257 109.457 4.10236C109.457 4.84213 110.073 5.44184 110.831 5.44184Z" fill="#CF6BE3"/>
<path d="M144.588 78.434H111.092C110.193 78.434 109.457 77.7166 109.457 76.8408C109.457 75.965 110.193 75.2475 111.092 75.2475H144.588C145.486 75.2475 146.222 75.965 146.222 76.8408C146.222 77.7166 145.486 78.434 144.588 78.434Z" fill="#E6E7E8"/>
<path d="M144.588 85.7288H111.092C110.193 85.7288 109.457 85.0114 109.457 84.1356C109.457 83.2597 110.193 82.5423 111.092 82.5423H144.588C145.486 82.5423 146.222 83.2597 146.222 84.1356C146.222 85.0114 145.486 85.7288 144.588 85.7288Z" fill="#E6E7E8"/>
<path d="M144.588 93.0215H111.092C110.193 93.0215 109.457 92.304 109.457 91.4282C109.457 90.5524 110.193 89.835 111.092 89.835H144.588C145.486 89.835 146.222 90.5524 146.222 91.4282C146.222 92.3059 145.486 93.0215 144.588 93.0215Z" fill="#E6E7E8"/>
<path d="M144.588 101.245H111.092C110.193 101.245 109.457 100.528 109.457 99.6522C109.457 98.7764 110.193 98.0589 111.092 98.0589H144.588C145.486 98.0589 146.222 98.7764 146.222 99.6522C146.222 100.528 145.486 101.245 144.588 101.245Z" fill="#E6E7E8"/>
<path d="M144.588 108.538H111.092C110.193 108.538 109.457 107.821 109.457 106.945C109.457 106.069 110.193 105.352 111.092 105.352H144.588C145.486 105.352 146.222 106.069 146.222 106.945C146.222 107.823 145.486 108.538 144.588 108.538Z" fill="#E6E7E8"/>
<path d="M144.588 115.833H111.092C110.193 115.833 109.457 115.115 109.457 114.24C109.457 113.364 110.193 112.646 111.092 112.646H144.588C145.486 112.646 146.222 113.364 146.222 114.24C146.222 115.115 145.486 115.833 144.588 115.833Z" fill="#E6E7E8"/>
<path d="M194.711 78.4342H161.215C160.317 78.4342 159.581 77.7167 159.581 76.8409C159.581 75.9651 160.317 75.2477 161.215 75.2477H194.711C195.61 75.2477 196.346 75.9651 196.346 76.8409C196.346 77.7167 195.61 78.4342 194.711 78.4342Z" fill="#E6E7E8"/>
<path d="M194.711 85.7288H161.215C160.317 85.7288 159.581 85.0114 159.581 84.1356C159.581 83.2597 160.317 82.5423 161.215 82.5423H194.711C195.61 82.5423 196.346 83.2597 196.346 84.1356C196.346 85.0114 195.61 85.7288 194.711 85.7288Z" fill="#E6E7E8"/>
<path d="M194.711 93.0215H161.215C160.317 93.0215 159.581 92.304 159.581 91.4282C159.581 90.5524 160.317 89.835 161.215 89.835H194.711C195.61 89.835 196.346 90.5524 196.346 91.4282C196.346 92.3059 195.61 93.0215 194.711 93.0215Z" fill="#E6E7E8"/>
<path d="M194.711 101.245H161.215C160.317 101.245 159.581 100.528 159.581 99.6522C159.581 98.7764 160.317 98.0589 161.215 98.0589H194.711C195.61 98.0589 196.346 98.7764 196.346 99.6522C196.346 100.528 195.61 101.245 194.711 101.245Z" fill="#E6E7E8"/>
<path d="M194.711 108.538H161.215C160.317 108.538 159.581 107.821 159.581 106.945C159.581 106.069 160.317 105.352 161.215 105.352H194.711C195.61 105.352 196.346 106.069 196.346 106.945C196.346 107.823 195.61 108.538 194.711 108.538Z" fill="#E6E7E8"/>
<path d="M194.711 115.833H161.215C160.317 115.833 159.581 115.115 159.581 114.24C159.581 113.364 160.317 112.646 161.215 112.646H194.711C195.61 112.646 196.346 113.364 196.346 114.24C196.346 115.115 195.61 115.833 194.711 115.833Z" fill="#E6E7E8"/>
<path d="M239.641 46.7139C235.785 45.7732 234.82 34.4964 230.963 34.4964C222.491 35.2463 219.555 46.1892 214.784 54.394C215.408 57.7751 218.452 60.3644 222.095 60.3644H256.044C260.133 60.3644 263.478 57.1035 263.478 53.1175V29.3922C262.3 29.4838 261.096 29.896 259.89 30.7355C253.14 36.3759 248.319 48.5934 239.641 46.7139Z" fill="#CF6BE3"/>
<path fill-rule="evenodd" clip-rule="evenodd" d="M222.097 60.9005H256.044C260.446 60.9005 264.028 57.4106 264.027 53.1155V28.8102L263.433 28.856C262.094 28.9591 260.795 29.4437 259.53 30.3272C257.318 32.1757 255.302 34.7269 253.35 37.1963L253.336 37.2135C249.206 42.4436 245.3 47.3817 239.766 46.1891C238.165 45.7923 237.016 42.9912 235.906 40.2836L235.904 40.2802C234.573 37.0301 233.314 33.9602 230.914 33.9602H230.912C224.092 34.565 220.688 41.4876 217.397 48.1831C216.417 50.179 215.401 52.2454 214.306 54.1287L214.208 54.2966L214.244 54.4874C214.929 58.2044 218.231 60.9005 222.097 60.9005ZM222.097 59.8282C218.83 59.8282 216.029 57.5938 215.363 54.4855C216.438 52.6175 217.429 50.6006 218.388 48.6468L218.39 48.6431C221.694 41.9242 224.815 35.5781 230.961 35.0306C232.568 35.0306 233.747 37.9042 234.886 40.6824C236.102 43.6457 237.359 46.7081 239.508 47.2329L239.522 47.2367C245.745 48.5846 250.04 43.148 254.198 37.8842L254.209 37.8699C256.13 35.439 258.117 32.9241 260.209 31.1725C261.084 30.5619 261.997 30.1707 262.928 30.0028V53.1174C262.928 56.8172 259.839 59.8282 256.044 59.8282H222.097Z" fill="#80358F"/>
<path d="M256.104 19.6324H222.156C218.067 19.6324 214.721 22.8933 214.721 26.8793V53.1175C214.721 53.5525 214.768 53.978 214.845 54.394C219.613 46.1873 222.552 35.2463 231.024 34.4964C234.88 34.4964 235.845 45.7751 239.702 46.7139C248.38 48.5934 253.201 36.3759 259.951 30.7355C261.157 29.896 262.361 29.4819 263.539 29.3922V26.8793C263.539 22.8933 260.194 19.6324 256.104 19.6324Z" fill="white"/>
<path fill-rule="evenodd" clip-rule="evenodd" d="M214.304 54.4875L214.572 55.9529L215.322 54.6573C216.43 52.7475 217.452 50.6727 218.439 48.6653L218.448 48.6468L218.45 48.6432C221.755 41.9243 224.875 35.5783 231.022 35.0307C232.629 35.0307 233.807 37.9043 234.947 40.6825V40.6842C236.162 43.6469 237.419 46.7103 239.582 47.2368C245.805 48.5846 250.1 43.1481 254.258 37.8842L254.27 37.8699C256.19 35.439 258.177 32.9242 260.27 31.1725C261.331 30.4322 262.445 30.0143 263.582 29.9266L264.089 29.8884V26.8793C264.089 22.588 260.507 19.0962 256.104 19.0962H222.158C217.755 19.0962 214.173 22.588 214.173 26.8793V53.1175C214.173 53.5545 214.216 54.0029 214.304 54.4875ZM215.273 26.8793C215.273 23.1795 218.362 20.1686 222.158 20.1686V20.1667H256.104C259.9 20.1667 262.989 23.1776 262.989 26.8774V28.9134C261.828 29.0889 260.697 29.5564 259.592 30.3273C257.38 32.1758 255.364 34.7269 253.412 37.1964L253.399 37.2136V37.2143C249.264 42.4459 245.361 47.3856 239.835 46.1911C238.232 45.8004 237.082 42.9995 235.971 40.2902L235.969 40.2837L235.967 40.2802C234.636 37.0302 233.377 33.9603 230.977 33.9603H230.975C224.155 34.5651 220.751 41.4877 217.46 48.1832L217.45 48.2034C216.747 49.6337 216.027 51.0959 215.273 52.5031V26.8793Z" fill="#80358F"/>
<path d="M243.952 36.4942C246.314 36.4942 248.231 34.6267 248.231 32.3231C248.231 30.0194 246.314 28.152 243.952 28.152C241.589 28.152 239.672 30.0194 239.672 32.3231C239.672 34.6267 241.589 36.4942 243.952 36.4942Z" fill="#CF6BE3"/>
<path fill-rule="evenodd" clip-rule="evenodd" d="M239.122 32.3212C239.122 34.9162 241.289 37.0285 243.952 37.0285C246.616 37.0285 248.781 34.9162 248.781 32.3212C248.781 29.7262 246.614 27.614 243.952 27.614C241.289 27.614 239.122 29.7262 239.122 32.3212ZM240.222 32.3231C240.222 30.3177 241.896 28.6882 243.952 28.6882C246.009 28.6882 247.681 30.3177 247.681 32.3231C247.681 34.3285 246.007 35.958 243.952 35.958C241.894 35.958 240.222 34.3285 240.222 32.3231Z" fill="#80358F"/>
<path d="M118.26 61.1982H187.543C192.384 61.1982 196.344 57.3382 196.344 52.6194V28.2149C196.344 23.4962 192.384 19.6362 187.543 19.6362H118.26C113.419 19.6362 109.459 23.4962 109.459 28.2149V52.6194C109.457 57.3362 113.419 61.1982 118.26 61.1982Z" fill="#E6E7E8"/>
<path fill-rule="evenodd" clip-rule="evenodd" d="M118.26 61.7344H187.543C192.699 61.7344 196.896 57.6435 196.894 52.6195V28.215C196.894 23.189 192.699 19.1 187.543 19.1H118.26C113.104 19.1 108.909 23.189 108.909 28.215V52.6195C108.909 57.6454 113.104 61.7344 118.26 61.7344ZM110.009 28.2111C110.009 23.7767 113.711 20.1685 118.26 20.1685H187.543C192.092 20.1685 195.794 23.7767 195.794 28.2111V52.6156C195.794 57.05 192.092 60.6582 187.543 60.6582H118.26C113.711 60.6582 110.009 57.05 110.009 52.6156V28.2111Z" fill="#80358F"/>
<path d="M223.525 92.407H254.675C259.516 92.407 263.476 88.5469 263.476 83.8282C263.476 79.1095 259.516 75.2494 254.675 75.2494H223.525C218.684 75.2494 214.723 79.1095 214.723 83.8282C214.723 88.5469 218.684 92.407 223.525 92.407Z" fill="white"/>
<path fill-rule="evenodd" clip-rule="evenodd" d="M223.524 92.9432H254.677C259.833 92.9432 264.028 88.8541 264.028 83.8282C264.028 78.8023 259.833 74.7133 254.677 74.7133H223.524C218.368 74.7133 214.173 78.8023 214.173 83.8282C214.173 88.8541 218.368 92.9432 223.524 92.9432ZM215.273 83.8282C215.273 79.3938 218.975 75.7856 223.524 75.7856H254.677C259.226 75.7856 262.928 79.3938 262.928 83.8282C262.928 88.2626 259.226 91.8708 254.677 91.8708H223.524C218.975 91.8708 215.273 88.2626 215.273 83.8282Z" fill="#80358F"/>
<path d="M223.525 113.932H254.675C259.516 113.932 263.476 110.072 263.476 105.353C263.476 100.635 259.516 96.7746 254.675 96.7746H223.525C218.684 96.7746 214.723 100.635 214.723 105.353C214.723 110.072 218.684 113.932 223.525 113.932Z" fill="white"/>
<path fill-rule="evenodd" clip-rule="evenodd" d="M223.524 114.468H254.677C259.833 114.468 264.028 110.379 264.028 105.352C264.028 100.326 259.833 96.2365 254.677 96.2365H223.524C218.368 96.2365 214.173 100.327 214.173 105.353C214.173 110.379 218.368 114.468 223.524 114.468ZM215.273 105.352C215.273 100.917 218.975 97.3089 223.524 97.3089H254.677C259.226 97.3089 262.928 100.917 262.928 105.352C262.928 109.786 259.226 113.394 254.677 113.394H223.524C218.975 113.394 215.273 109.786 215.273 105.352Z" fill="#80358F"/>
<path d="M190.416 188.932C226.197 188.932 255.202 187.004 255.202 184.625C255.202 182.247 226.197 180.319 190.416 180.319C154.636 180.319 125.631 182.247 125.631 184.625C125.631 187.004 154.636 188.932 190.416 188.932Z" fill="#E6E7E8"/>
<path d="M114.944 172.81H81.9358C80.0859 172.81 78.5747 171.335 78.5747 169.534V168.299C78.5747 166.496 80.0879 165.023 81.9358 165.023H114.944C116.794 165.023 118.305 166.498 118.305 168.299V169.534C118.305 171.335 116.792 172.81 114.944 172.81Z" fill="#A7A9AC"/>
<path d="M114.944 181.276H81.9358C80.0859 181.276 78.5747 179.801 78.5747 178V176.766C78.5747 174.962 80.0879 173.489 81.9358 173.489H114.944C116.794 173.489 118.305 174.964 118.305 176.766V178C118.305 179.801 116.792 181.276 114.944 181.276Z" fill="#A7A9AC"/>
<path d="M114.944 189.828H81.9358C80.0859 189.828 78.5747 188.353 78.5747 186.552V185.318C78.5747 183.515 80.0879 182.041 81.9358 182.041H114.944C116.794 182.041 118.305 183.516 118.305 185.318V186.552C118.305 188.353 116.792 189.828 114.944 189.828Z" fill="#A7A9AC"/>
<path d="M81.8146 169.748C82.3206 169.748 82.7307 169.348 82.7307 168.855C82.7307 168.361 82.3206 167.962 81.8146 167.962C81.3085 167.962 80.8984 168.361 80.8984 168.855C80.8984 169.348 81.3085 169.748 81.8146 169.748Z" fill="white"/>
<path d="M114.821 169.748C115.327 169.748 115.737 169.348 115.737 168.855C115.737 168.361 115.327 167.962 114.821 167.962C114.315 167.962 113.905 168.361 113.905 168.855C113.905 169.348 114.315 169.748 114.821 169.748Z" fill="white"/>
<path d="M81.9965 177.91C82.5025 177.91 82.9126 177.511 82.9126 177.017C82.9126 176.524 82.5025 176.124 81.9965 176.124C81.4904 176.124 81.0803 176.524 81.0803 177.017C81.0803 177.511 81.4904 177.91 81.9965 177.91Z" fill="white"/>
<path d="M115.005 177.91C115.511 177.91 115.921 177.511 115.921 177.017C115.921 176.524 115.511 176.124 115.005 176.124C114.499 176.124 114.089 176.524 114.089 177.017C114.089 177.511 114.499 177.91 115.005 177.91Z" fill="white"/>
<path d="M81.9965 186.779C82.5025 186.779 82.9126 186.38 82.9126 185.886C82.9126 185.393 82.5025 184.993 81.9965 184.993C81.4904 184.993 81.0803 185.393 81.0803 185.886C81.0803 186.38 81.4904 186.779 81.9965 186.779Z" fill="white"/>
<path d="M115.005 186.779C115.511 186.779 115.921 186.38 115.921 185.886C115.921 185.393 115.511 184.993 115.005 184.993C114.499 184.993 114.089 185.393 114.089 185.886C114.089 186.38 114.499 186.779 115.005 186.779Z" fill="white"/>
<path d="M138.578 28.9992C138.692 28.9228 138.803 28.8465 138.917 28.7721C142.479 26.4118 146.743 24.456 150.969 25.2631C158.42 26.6847 161.844 34.7082 166.597 39.5433C170.007 43.0122 175.286 45.611 180.396 45.0958C184.677 44.6646 185.428 40.1462 184.403 36.7441C184.023 35.4886 183.436 34.2865 182.371 33.4508C181.39 32.6799 178.968 31.6171 177.694 32.2925C179.89 31.1305 182.747 31.7087 184.706 33.2199C191.332 38.3317 189.661 49.265 182.559 53.1079C177.058 56.0826 170.341 53.4647 166.003 49.6982C161.102 45.4412 159.581 38.8373 155.018 34.3208C153.796 33.113 152.424 32.0521 150.574 32.2029C146.911 32.5024 146.31 36.2862 143.852 38.1733C143.217 38.6598 142.382 38.9594 141.597 38.7781C141.019 38.6446 140.536 38.2744 140.027 37.9748C137.715 36.6067 131.133 36.8472 134.475 32.5997C135.603 31.1687 137.059 30.0276 138.578 28.9992Z" fill="#CF6BE3"/>
<path fill-rule="evenodd" clip-rule="evenodd" d="M165.641 50.0969C168.585 52.6519 172.929 54.9397 177.336 54.9397C179.19 54.9397 181.053 54.5351 182.827 53.5735C186.501 51.5852 189.013 47.5954 189.385 43.161C189.735 38.967 188.155 35.189 185.049 32.7943C182.746 31.016 179.685 30.6248 177.434 31.8155L177.96 32.7581C178.882 32.2696 181.03 33.0806 182.028 33.8629C182.866 34.5212 183.453 35.4828 183.878 36.891C184.542 39.0949 184.332 41.4456 183.345 42.8805C182.67 43.8613 181.658 44.4261 180.341 44.5596C175.891 45.0099 170.655 42.892 166.996 39.1693C165.628 37.7764 164.384 36.1335 163.069 34.3933C159.866 30.1574 156.552 25.7764 151.077 24.7327C147.395 24.0305 143.315 25.2059 138.609 28.3256L138.267 28.5546C136.971 29.4323 135.319 30.6477 134.044 32.2677C133.122 33.4393 132.815 34.4143 133.107 35.252C133.58 36.6149 135.456 37.1095 137.271 37.5878L137.276 37.5894C138.251 37.8451 139.171 38.0874 139.747 38.4289C139.856 38.4938 139.964 38.5606 140.072 38.6293L140.077 38.6327C140.5 38.8987 140.937 39.1737 141.475 39.2971C142.358 39.4994 143.349 39.2418 144.196 38.5911C145.165 37.847 145.848 36.8548 146.51 35.8931C147.614 34.2884 148.567 32.9031 150.623 32.7352C152.283 32.6016 153.52 33.5976 154.628 34.6948C156.731 36.7769 158.212 39.3847 159.646 41.9093L159.649 41.915C161.29 44.8039 162.987 47.7919 165.641 50.0969ZM155.411 33.943C154.256 32.7982 152.827 31.6514 150.924 31.6514C150.795 31.6514 150.664 31.6571 150.531 31.6667C147.949 31.8765 146.753 33.6144 145.596 35.2953L145.596 35.2958C144.956 36.2289 144.349 37.1104 143.515 37.7497C142.941 38.1904 142.272 38.3793 141.728 38.2534C141.369 38.1713 141.027 37.9557 140.667 37.7287C140.63 37.7062 140.594 37.6834 140.558 37.6607C140.477 37.6106 140.397 37.5604 140.316 37.5131C139.609 37.0938 138.616 36.8326 137.566 36.5563L137.562 36.5552C136.096 36.1698 134.434 35.7328 134.148 34.9104C133.985 34.4448 134.244 33.777 134.915 32.9241C136.098 31.4224 137.662 30.2737 138.893 29.4399L139.228 29.2148C143.679 26.2629 147.485 25.1429 150.866 25.7878C155.92 26.7533 159.105 30.9626 162.182 35.0325C163.461 36.7231 164.784 38.4709 166.201 39.9134C169.294 43.058 174.668 46.214 180.454 45.6282C182.091 45.4622 183.406 44.7199 184.26 43.4797C185.669 41.4323 185.532 38.5778 184.933 36.5914C184.45 34.9848 183.725 33.8209 182.719 33.0309C182.455 32.8211 182.091 32.5902 181.67 32.3727C182.619 32.5845 183.555 33.0119 184.367 33.6377C187.18 35.8053 188.609 39.2456 188.288 43.0751C187.948 47.1565 185.651 50.8201 182.294 52.6366C176.805 55.6075 170.285 52.6938 166.371 49.2955C163.856 47.1127 162.206 44.2066 160.61 41.396L160.606 41.389C159.137 38.8018 157.619 36.1276 155.411 33.943Z" fill="#80358F"/>
<path d="M99.0137 68.7658C97.293 70.6338 95.0672 72.8701 94.065 75.2609C93.9847 75.4536 93.9162 75.6807 94.0141 75.8658C95.3061 78.289 114.567 60.706 116.612 58.8799C120.917 55.0351 124.926 52.0852 128.657 47.6737C129.374 46.8265 130.108 45.9125 130.288 44.8058C130.393 44.1189 127.105 45.5462 126.467 45.8629C121.582 48.2824 115.849 52.5279 111.859 56.1247C107.406 60.1412 103.083 64.3485 99.0137 68.7658Z" fill="#80358F"/>
<path d="M136.71 37.6256C136.599 36.7269 136.376 35.8511 136.023 35.0287C135.187 33.0691 133.664 31.2011 131.425 30.7756C135.058 33.0061 131.578 37.3528 128.962 39.1139C128.316 39.549 127.612 39.923 126.838 40.2283C124.879 41.001 122.279 41.5983 121.78 43.93C128.195 44.0921 132.975 41.5239 136.71 37.6256Z" fill="#CF6BE3"/>
<path fill-rule="evenodd" clip-rule="evenodd" d="M121.768 44.4643C121.972 44.47 122.176 44.4719 122.379 44.4719C128.115 44.4719 132.938 42.3482 137.112 37.9958L137.288 37.8127L137.257 37.5646C137.135 36.5858 136.891 35.6642 136.532 34.8246C135.904 33.3515 134.418 30.7985 131.533 30.2509L128.645 29.7033L131.133 31.2317C131.995 31.7602 132.421 32.4223 132.441 33.2561C132.482 35.0898 130.519 37.4158 128.651 38.6732C128.027 39.093 127.347 39.4498 126.635 39.7303C126.365 39.8372 126.083 39.9402 125.795 40.0451L125.792 40.0463C123.984 40.7063 121.735 41.5272 121.244 43.8193L121.109 44.4471L121.768 44.4643ZM133.541 33.2294C133.533 32.8898 133.477 32.5654 133.373 32.2582C134.479 33.1398 135.156 34.3915 135.516 35.2348C135.806 35.9141 136.014 36.6564 136.131 37.4444C132.259 41.4037 127.804 43.3576 122.542 43.3977C123.164 42.1465 124.692 41.5892 126.177 41.0476L126.179 41.0469C126.219 41.0322 126.259 41.0175 126.299 41.003C126.555 40.9097 126.806 40.8183 127.046 40.7225C127.833 40.4115 128.585 40.0184 129.276 39.5528C131.02 38.3775 133.596 35.7252 133.541 33.2294Z" fill="#80358F"/>
<path d="M121.78 43.9262C121.776 43.9472 121.769 43.9663 121.765 43.9873C121.036 47.7233 123.511 51.4804 127.735 50.7954C133.618 49.8394 137.413 43.2565 136.711 37.6238C132.976 41.5239 128.195 44.0922 121.78 43.9262Z" fill="white"/>
<path fill-rule="evenodd" clip-rule="evenodd" d="M122.88 49.8508C123.908 50.8754 125.259 51.4135 126.758 51.4135C127.107 51.4135 127.463 51.3849 127.825 51.3276C134.265 50.282 137.965 43.2335 137.256 37.5627L137.114 36.4216L136.309 37.2612C132.216 41.5334 127.498 43.5407 121.796 43.3919L121.363 43.4072L121.224 43.8899C120.791 46.1166 121.426 48.4006 122.88 49.8508ZM123.665 49.1009C122.538 47.9751 122.009 46.2254 122.242 44.47C127.67 44.5234 132.237 42.6611 136.24 38.8602C136.28 43.8002 132.885 49.4176 127.645 50.2687C125.648 50.593 124.378 49.8126 123.665 49.1009Z" fill="#80358F"/>
<path d="M64.7251 172.324L65.9721 183.824L62.0706 184.625L61.501 172.551C61.501 172.551 63.5662 171.816 64.7251 172.324Z" fill="white"/>
<path fill-rule="evenodd" clip-rule="evenodd" d="M60.9331 172.182L61.5497 185.28L66.5728 184.247L65.2397 171.959L64.952 171.833C63.6267 171.251 61.5458 171.963 61.3129 172.047L60.9331 172.182ZM62.5912 183.973L62.0704 172.938C62.644 172.778 63.566 172.595 64.2159 172.726L65.3729 183.4L62.5912 183.973Z" fill="#80358F"/>
<path d="M80.8749 189.922C80.8749 189.922 77.9522 190.554 72.5102 190.357C67.0682 190.16 61.0232 189.701 60.019 188.802C59.0128 187.901 59.0696 181.189 60.8686 181.385C62.6676 181.58 63.0767 184.194 66.5083 182.274C69.4486 180.63 71.2006 184.524 75.8204 186.014C80.4383 187.502 82.3098 188.102 80.8749 189.922Z" fill="#A7A9AC"/>
<path fill-rule="evenodd" clip-rule="evenodd" d="M72.4906 190.893C73.2364 190.92 73.9353 190.931 74.5872 190.931C78.5798 190.931 80.7709 190.492 80.9833 190.449C80.9892 190.448 80.9935 190.447 80.9962 190.447L81.192 190.405L81.3134 190.25C81.836 189.586 82.0063 189 81.836 188.456C81.4621 187.27 79.6436 186.682 75.9927 185.505C74.1741 184.919 72.8156 183.94 71.6175 183.076L71.6166 183.075C69.8238 181.782 68.2775 180.666 66.2342 181.809C64.2802 182.901 63.5947 182.38 62.7245 181.719L62.7224 181.717C62.2389 181.349 61.6907 180.933 60.9292 180.851C60.5671 180.811 59.8937 180.9 59.4141 181.925C58.5723 183.73 58.5684 188.231 59.647 189.197C60.6004 190.05 64.9207 190.62 72.4906 190.893ZM60.4164 182.366C60.5456 182.089 60.6924 181.916 60.7961 181.916H60.8059C61.2581 181.965 61.6222 182.242 62.0431 182.562L62.0433 182.563C62.9966 183.288 64.1829 184.19 66.7784 182.738C68.1331 181.98 69.1451 182.627 70.9618 183.936C72.1637 184.802 73.6612 185.881 75.6756 186.531L75.6854 186.534C78.4193 187.416 80.5755 188.112 80.7829 188.769C80.8318 188.926 80.7554 189.149 80.5577 189.435C79.8178 189.567 77.038 189.983 72.5298 189.821C64.4176 189.529 60.939 188.899 60.389 188.407C59.9191 187.981 59.6079 184.093 60.4164 182.366Z" fill="#80358F"/>
<path d="M75.0199 175.503C74.8379 175.088 74.3602 174.779 73.9452 174.457C70.1534 171.511 71.0793 167.017 71.6862 163.09C73.125 153.775 71.5844 144.385 71.0089 135.068C70.449 125.974 71.3828 116.848 73.5145 107.983C74.2897 104.762 75.3586 99.7818 70.2474 100.724C67.8259 101.171 65.4357 101.083 63.022 100.671C61.7515 100.453 63.0474 100.051 61.7515 100.453C57.3372 101.827 55.687 109.96 56.5934 112.793C58.3982 118.435 58.9855 123.85 59.2791 129.825C59.6941 138.297 61.1408 146.778 60.1091 155.185C59.6041 159.305 59.0168 163.413 58.453 167.525C58.1242 169.923 56.0668 175.178 57.4469 177.35C59.3418 180.33 67.7847 177.804 70.6056 177.737C72.7256 177.683 75.6385 176.909 75.0199 175.503Z" fill="white"/>
<path fill-rule="evenodd" clip-rule="evenodd" d="M56.9789 177.628C57.803 178.926 59.5864 179.328 61.6418 179.328C63.5798 179.328 65.7605 178.971 67.6045 178.668C68.8515 178.464 69.9282 178.288 70.6153 178.271C71.9249 178.241 74.6107 177.857 75.4152 176.636C75.6893 176.22 75.7265 175.754 75.5229 175.291C75.3117 174.814 74.8681 174.479 74.4748 174.181L74.4736 174.18L74.2857 174.037C70.9299 171.428 71.5428 167.528 72.1357 163.755L72.1363 163.751L72.2263 163.169C73.3245 156.067 72.6981 148.845 72.0913 141.861L72.0793 141.723C71.8893 139.526 71.6929 137.258 71.5569 135.034C71.0166 126.283 71.8564 117.224 74.0488 108.103C74.6929 105.418 75.2586 102.43 73.7865 100.932C73.0094 100.141 71.782 99.8925 70.1435 100.196C67.9745 100.595 65.6783 100.577 63.1159 100.141C63.0454 100.129 62.9906 100.118 62.9475 100.106V100.028L62.7204 99.8581C62.464 99.6673 62.2937 99.7188 61.585 99.9402C56.6853 101.465 55.1427 110.055 56.0686 112.95C57.9694 118.895 58.4706 124.585 58.729 129.848C58.8513 132.328 59.0641 134.847 59.27 137.284L59.2751 137.344L59.2761 137.356C59.7712 143.201 60.2829 149.244 59.5609 155.118C59.1702 158.309 58.7219 161.548 58.2883 164.683L58.2728 164.794L57.9068 167.45C57.8226 168.066 57.6075 168.92 57.3784 169.83L57.3626 169.893C56.6911 172.553 55.8572 175.863 56.9789 177.628ZM62.0079 100.934C62.0482 100.922 62.0856 100.91 62.1194 100.9C62.3759 101.102 62.7439 101.165 62.9299 101.196C65.6215 101.656 68.0509 101.671 70.353 101.247C71.6058 101.016 72.4945 101.159 72.9976 101.673C74.18 102.877 73.4009 106.117 72.982 107.857C70.7641 117.079 69.9164 126.243 70.4626 135.097C70.6035 137.379 70.8032 139.703 70.999 141.949C71.5999 148.871 72.2205 156.029 71.1438 163.006L71.0538 163.586C70.4411 167.471 69.75 171.877 73.6045 174.873L73.8041 175.025C74.1056 175.253 74.4169 175.489 74.5147 175.71C74.5833 175.865 74.5559 175.96 74.4932 176.054C74.1076 176.642 72.3575 177.155 70.5937 177.197C69.8283 177.216 68.7164 177.397 67.4284 177.609L67.4227 177.61C64.1183 178.152 59.1275 178.97 57.9166 177.063C57.0376 175.682 57.8441 172.484 58.4334 170.15L58.4453 170.103C58.6927 169.119 58.9067 168.27 58.9991 167.593L59.3652 164.939C59.8056 161.764 60.2598 158.482 60.6571 155.246C61.3916 149.272 60.8768 143.186 60.3786 137.296L60.3753 137.257L60.3704 137.199C60.1644 134.771 59.9514 132.261 59.8311 129.796C59.5707 124.461 59.0617 118.689 57.1218 112.629C56.2918 110.038 57.85 102.228 61.9217 100.961C61.9517 100.952 61.9805 100.943 62.0079 100.934Z" fill="#80358F"/>
<path d="M88.8597 147.488L86.2601 158.929L82.2471 158.475L85.6865 146.694C85.6865 146.694 87.9142 146.635 88.8597 147.488Z" fill="white"/>
<path fill-rule="evenodd" clip-rule="evenodd" d="M81.5386 158.936L86.6889 159.518L89.4608 147.305L89.2298 147.095C88.1512 146.122 85.9235 146.154 85.669 146.16L85.2658 146.171L81.5386 158.936ZM85.8296 158.339L82.9519 158.015L86.0997 147.236C86.7163 147.261 87.6638 147.375 88.2452 147.709L85.8296 158.339Z" fill="#80358F"/>
<path d="M101.884 164.481C101.884 164.481 98.9276 165.147 93.4131 164.998C87.8967 164.85 81.7676 164.439 80.7399 163.537C79.7121 162.634 79.7043 155.832 81.5288 156.013C83.3532 156.194 83.7937 158.839 87.2507 156.862C90.2125 155.17 92.0272 159.099 96.7234 160.566C101.418 162.035 103.32 162.625 101.884 164.481Z" fill="#D1D3D4"/>
<path fill-rule="evenodd" clip-rule="evenodd" d="M93.3974 165.535C93.9631 165.55 94.5015 165.557 95.0124 165.557C99.3864 165.557 101.777 165.054 101.995 165.009C102 165.007 102.004 165.007 102.007 165.006L102.203 164.962L102.322 164.806C102.845 164.13 103.013 163.537 102.835 162.989C102.448 161.794 100.605 161.218 96.9026 160.06L96.8916 160.056C95.0459 159.48 93.6619 158.502 92.4403 157.639L92.4323 157.633C90.6059 156.341 89.0262 155.227 86.9727 156.401C85.001 157.527 84.2977 157.004 83.406 156.341L83.404 156.34L83.3991 156.336C82.907 155.97 82.3503 155.557 81.5835 155.481C81.2214 155.443 80.5401 155.538 80.0664 156.578C79.2325 158.412 79.2716 162.968 80.3718 163.936C81.3447 164.789 85.7257 165.327 93.3974 165.535ZM81.0726 157.013C81.2018 156.729 81.3545 156.547 81.4621 156.547C81.4641 156.547 81.468 156.547 81.4719 156.551C81.9292 156.597 82.2996 156.872 82.7271 157.191L82.7346 157.196C83.7075 157.921 84.9192 158.822 87.5267 157.33C88.8989 156.546 89.9286 157.194 91.7844 158.505L91.7871 158.507C93.0122 159.373 94.5383 160.452 96.5843 161.091C99.3699 161.961 101.568 162.648 101.786 163.315C101.838 163.476 101.762 163.707 101.56 164.001C100.819 164.138 98.0055 164.588 93.4268 164.464C85.203 164.241 81.6716 163.634 81.1078 163.14C80.6243 162.716 80.27 158.776 81.0726 157.013Z" fill="#80358F"/>
<path d="M103.426 111.375C100.836 107.559 91.9841 107.601 83.8622 108.576L73.7827 107.996L72.4104 104.271C72.4104 104.271 56.3741 109.046 56.3564 109.051C56.8635 108.971 56.7832 115.27 57.0768 115.817C59.373 120.105 65.9015 123.65 71.138 123.717C77.3591 123.797 83.2279 122.049 89.0419 120.177C99.599 116.781 84.794 138.23 81.4348 145.023C78.0756 151.815 81.7676 151.457 90.1499 151.1C98.5341 150.743 94.574 151.279 96.003 145.605C97.434 139.928 108.549 118.926 103.426 111.375Z" fill="white"/>
<path fill-rule="evenodd" clip-rule="evenodd" d="M80.0605 150.339C80.8455 151.499 82.5642 151.796 85.2382 151.796C86.395 151.796 87.7302 151.741 89.2456 151.678L89.4627 151.669L91.6219 151.579C94.5973 151.462 95.4959 151.426 95.9931 150.879C96.3513 150.482 96.3102 149.984 96.2574 149.352L96.257 149.347C96.1943 148.601 96.0998 147.475 96.5392 145.732C96.8799 144.378 97.8293 142.023 98.9294 139.296C102.506 130.424 107.909 117.016 103.884 111.082C101.619 107.744 94.8753 106.722 83.8425 108.04L74.176 107.483L72.749 103.609L72.2478 103.758C56.2307 108.525 56.1919 108.538 56.186 108.54L56.4425 109.58C56.1919 109.62 56.0118 109.465 55.9688 109.376C56.1301 109.721 56.224 111.745 56.2808 112.972L56.282 112.997C56.374 115.02 56.4209 115.754 56.5873 116.064C58.9286 120.431 65.5882 124.181 71.1301 124.251C77.3473 124.333 83.2298 122.61 89.214 120.685C90.1928 120.37 91.4594 120.118 91.9448 120.696C93.6767 122.757 87.7786 132.856 84.2528 138.894L84.2497 138.9C82.8559 141.285 81.6539 143.344 80.9394 144.788C79.5868 147.526 79.3147 149.238 80.0605 150.339ZM92.7983 120.019C92.3833 119.523 91.7765 119.277 90.968 119.277C90.3788 119.277 89.6819 119.408 88.8715 119.67C82.9812 121.565 77.1907 123.263 71.1477 123.181C65.9602 123.114 59.741 119.628 57.5798 115.6C57.4937 115.348 57.4291 113.963 57.3821 112.951C57.2921 111.019 57.2216 109.979 57.1041 109.389C59.647 108.632 69.6991 105.638 72.0677 104.934L73.3852 108.511L83.8758 109.116L83.9267 109.11C94.3898 107.853 100.973 108.74 102.964 111.673C106.673 117.141 101.184 130.761 97.9027 138.901L97.9017 138.903L97.8757 138.968C96.7291 141.815 95.824 144.062 95.4685 145.477C94.9869 147.39 95.0906 148.623 95.1592 149.438V149.438L95.1603 149.452C95.1838 149.726 95.2152 150.092 95.167 150.165C94.9918 150.368 93.5015 150.428 91.6109 150.503L91.5768 150.505L89.4137 150.594H89.4127C84.9794 150.787 81.7773 150.926 80.9805 149.749C80.4853 149.02 80.7965 147.549 81.9319 145.255C82.6292 143.849 83.8194 141.809 85.1975 139.448L85.2069 139.432C90.7605 129.924 94.844 122.456 92.7983 120.019Z" fill="#80358F"/>
<path d="M82.3607 42.3615C82.7268 42.4798 83.827 46.5326 81.8714 49.1543C79.9157 51.776 81.0511 51.4192 79.1386 53.2052C77.2261 54.9931 75.8812 55.3804 75.8812 55.3804L73.6809 56.1837L73.9256 51.7741L76.1102 44.7428L83.0009 42.3615" fill="#80358F"/>
<path d="M71.7369 60.3282C71.7369 60.3282 70.533 68.926 70.5311 68.926C68.4013 69.5366 66.1696 70.7024 63.9263 70.6986C64.0281 69.1035 65.6293 67.2793 66.3654 65.7738C67.258 63.9478 67.8864 62.0569 67.7885 60.0095C67.5301 54.6592 71.7369 60.3282 71.7369 60.3282Z" fill="white"/>
<path fill-rule="evenodd" clip-rule="evenodd" d="M63.9283 71.2366H63.9381C65.5883 71.2366 67.1916 70.6585 68.74 70.0994C69.4134 69.8552 70.0535 69.6243 70.6643 69.4488C70.708 69.4383 70.7465 69.4289 70.7814 69.4125C71.036 69.2931 71.1052 68.7983 71.6783 64.7014L72.3106 60.1888L72.1814 60.0152C71.4493 59.0268 69.5935 56.779 68.235 57.2408C67.2366 57.5823 67.1877 59 67.2386 60.038C67.3208 61.7382 66.8999 63.4383 65.8702 65.5448C65.6412 66.0142 65.3182 66.5237 64.9756 67.0636C64.2278 68.2448 63.4566 69.464 63.3783 70.668L63.343 71.2366H63.9283ZM68.5991 58.2521C68.6167 58.2464 68.6343 58.2444 68.6558 58.2444C69.0395 58.2444 70.1593 59.1718 71.1635 60.4693C71.0924 60.9753 70.9059 62.3068 70.7017 63.7634C70.4394 65.6353 70.1483 67.7135 70.0359 68.5119C69.4757 68.687 68.9115 68.8905 68.3628 69.0885L68.3583 69.09L68.3511 69.0927C67.1123 69.5402 65.8385 70.0004 64.5919 70.128C64.8269 69.34 65.3769 68.4718 65.9133 67.6265C66.2715 67.0617 66.6102 66.5275 66.8647 66.0066C67.9609 63.7607 68.4288 61.8488 68.3387 59.9865C68.2643 58.4372 68.5952 58.254 68.5991 58.2521Z" fill="#80358F"/>
<path d="M77.1672 43.306C77.1633 43.3156 80.6302 45.6072 78.792 51.0891C76.8266 56.9565 73.9901 61.8698 72.1715 61.3604C67.1406 59.9541 65.645 56.2887 64.1259 53.1231C62.2643 49.2421 67.3442 40.5431 67.3442 40.5431L71.6038 38.7266L77.1672 43.306Z" fill="white"/>
<path fill-rule="evenodd" clip-rule="evenodd" d="M72.0208 61.8756C72.1578 61.9138 72.2968 61.9329 72.4358 61.9329C74.8632 61.9329 77.6233 56.3059 79.3147 51.2552C80.8964 46.5365 78.7724 43.9949 77.8191 43.1401L77.8132 43.1363C77.6918 43.0275 77.59 42.9454 77.5176 42.892L71.6978 38.1008L66.9585 40.1234L66.8685 40.2779C66.6551 40.6424 61.6692 49.265 63.6287 53.3503L63.8714 53.8578C65.3455 56.9604 67.0172 60.477 72.0208 61.8756ZM64.6271 52.8961C63.0356 49.578 67.0838 42.125 67.7376 40.961L71.5138 39.3506L76.533 43.4835L76.5271 43.5026L76.852 43.7449C77.363 44.1246 79.8334 46.2579 78.2713 50.9232C75.9535 57.8343 73.3265 61.1257 72.3242 60.8453C67.8046 59.5829 66.3141 56.4465 64.8719 53.4121L64.8698 53.4075L64.6271 52.8961Z" fill="#80358F"/>
<path d="M85.0073 41.978C85.5731 40.6099 84.9408 38.0378 83.9659 37.0876C83.59 36.7212 83.0987 36.4674 82.5858 36.4751C82.2002 36.4808 81.8087 36.6315 81.4348 36.54C80.3111 36.2633 80.3131 35.3302 79.2834 34.9124C78.5161 34.6013 77.6997 35.2367 76.8795 35.3569C76.2609 35.4466 75.6463 35.2367 75.0453 35.0631C73.3559 34.5727 71.831 33.6416 70.0848 33.2924C68.6127 32.9985 67.0486 33.0367 65.6431 33.632C64.1769 34.2541 63.0572 35.5229 62.3877 37.0399C61.9883 37.9462 61.7985 38.9766 61.9746 39.9516C61.8298 39.1502 60.3088 39.8772 60.0484 40.1672C59.0246 41.3064 56.4445 44.6398 56.8145 46.09C57.1081 47.2386 56.1959 48.2785 56.4563 49.4425C56.7636 50.8277 60.481 51.6272 61.1466 52.8866C61.91 54.331 63.5994 55.1706 65.1361 54.9111C64.7779 53.6307 64.4235 52.3218 64.451 50.9785C64.4784 49.6352 63.1746 43.4568 70.03 42.6955C72.7549 42.3921 75.8029 44.8325 78.4808 45.1531C79.7532 45.3057 81.0511 45.1664 82.2883 44.7886C83.2436 44.4967 84.2576 43.2259 84.8488 42.2833C84.9114 42.186 84.9643 42.0849 85.0073 41.978Z" fill="#80358F"/>
<path d="M114.067 60.7174C113.901 60.6487 113.727 60.7918 113.605 60.9235C112.501 62.1141 111.395 63.3029 110.291 64.4935C110.076 64.7263 109.851 64.9648 109.561 65.1003C109.271 65.2358 108.896 65.2415 108.655 65.0335C108.365 64.7835 108.375 64.3466 108.408 63.9688C108.457 63.3983 109.428 62.2668 108.5 62.0168C107.183 62.6407 105.922 65.2892 105.532 66.621C105.014 68.0368 106.188 69.0424 105.395 70.2636C103.923 72.5323 102.49 74.8182 100.901 77.0106C100.067 78.1593 99.2095 79.2908 98.3482 80.4165C97.9586 80.926 96.3338 83.729 95.7661 83.7862C93.8791 86.2706 92.0546 88.8503 90.0227 91.2259C89.2475 92.1322 83.3239 86.906 83.3239 86.906C78.1305 82.9925 77.2515 79.9052 77.2515 79.9052L72.708 81.0424C72.708 81.0424 74.321 85.0494 77.4864 87.6902C80.9396 90.5695 85.3539 95.1165 87.7734 96.8891C90.1949 98.6617 90.3633 97.8012 91.2775 96.9463C93.2017 95.1394 94.6151 92.3745 96.097 90.2279C98.6536 86.5224 101.183 82.7959 103.628 79.0179C104.812 77.188 106.063 75.2342 107.145 73.2841C108.183 71.4161 109.048 70.3876 110.949 69.3019C112.548 68.3879 113.443 66.9569 113.729 65.1537C113.932 63.8677 113.819 62.5415 114.183 61.2784C114.242 61.078 114.265 60.7975 114.067 60.7174Z" fill="white"/>
<path fill-rule="evenodd" clip-rule="evenodd" d="M87.4426 97.3165C88.5368 98.1179 89.2768 98.4556 89.8719 98.4556C90.4357 98.4556 90.8663 98.1523 91.344 97.6523C91.4399 97.5493 91.5436 97.4405 91.6591 97.3318C93.0717 96.0081 94.1869 94.2332 95.2662 92.5156L95.2767 92.4986L95.2863 92.4833C95.7213 91.7907 96.1314 91.1375 96.5531 90.5275C99.5736 86.1523 101.97 82.586 104.094 79.3041C105.286 77.4628 106.542 75.4994 107.631 73.5398C108.578 71.8339 109.359 70.8341 111.229 69.7656C112.926 68.7963 113.952 67.2717 114.275 65.2377C114.359 64.7076 114.391 64.1756 114.422 63.6599L114.424 63.6311C114.469 62.8564 114.512 62.1256 114.715 61.4234C114.909 60.7498 114.621 60.3625 114.287 60.2232H114.285C114.077 60.1392 113.66 60.0686 113.198 60.5647L109.884 64.1348L109.878 64.1413C109.702 64.33 109.52 64.5252 109.326 64.6156C109.201 64.6748 109.064 64.671 109.021 64.6328C108.948 64.5698 108.927 64.3618 108.956 64.0146C108.964 63.9268 109.064 63.7036 109.138 63.5395L109.139 63.5383C109.35 63.0655 109.59 62.5278 109.352 62.0397C109.264 61.8565 109.068 61.6142 108.647 61.5016L108.447 61.4482L108.259 61.536C106.67 62.2878 105.38 65.1881 105.014 66.4417C104.718 67.2507 104.877 67.9567 105.006 68.5253C105.149 69.1588 105.215 69.5385 104.931 69.9774L104.113 71.2443C102.946 73.057 101.739 74.9289 100.453 76.7015C99.5912 77.8902 98.7201 79.0351 97.9077 80.0979C97.8039 80.2334 97.616 80.5234 97.3831 80.884C97.0052 81.4717 96.0186 83.002 95.6428 83.2615L95.4686 83.2787L95.3237 83.4676C94.8108 84.143 94.3019 84.8242 93.7929 85.5073C92.4774 87.2742 91.1169 89.1003 89.6761 90.7927C88.8892 90.6973 86.0018 88.5469 83.6605 86.4824C78.7099 82.752 77.7898 79.7888 77.782 79.7621L77.6371 79.2545L71.968 80.6722L72.1951 81.237C72.2616 81.4068 73.8962 85.4005 77.1282 88.0966C78.6942 89.4023 80.4552 91.0499 82.1583 92.6434L82.1708 92.655C84.193 94.5479 86.1036 96.3357 87.4426 97.3165ZM77.8427 87.2819C75.5073 85.3356 74.0274 82.5746 73.4695 81.4049L76.9069 80.5406C77.3728 81.5957 78.8488 84.2079 82.9519 87.299C84.1754 88.379 88.2412 91.8613 89.7583 91.8613H89.7585C89.7799 91.8613 89.7995 91.8613 89.821 91.8594C90.144 91.8365 90.3358 91.6857 90.4415 91.5636C91.9314 89.8238 93.3241 87.955 94.6718 86.1463L94.6816 86.1332C94.8053 85.9679 94.9291 85.8023 95.0528 85.6369C95.4042 85.1665 95.7553 84.6966 96.1087 84.2308C96.5765 83.998 97.1462 83.2615 98.3129 81.4488C98.3329 81.4181 98.3524 81.3878 98.3718 81.358C98.5558 81.0737 98.7034 80.8457 98.7886 80.7333C99.6068 79.6667 100.482 78.5123 101.351 77.3159C102.655 75.5204 103.87 73.6352 105.045 71.811L105.861 70.546C106.402 69.7121 106.231 68.9565 106.081 68.2906C105.961 67.7678 105.859 67.3175 106.061 66.7641C106.419 65.5411 107.341 63.7017 108.238 62.8564C108.201 62.948 108.161 63.0376 108.13 63.1044C108.003 63.3868 107.883 63.6559 107.86 63.9192L107.86 63.9218C107.83 64.2664 107.769 64.9793 108.289 65.4304C108.676 65.7662 109.269 65.8254 109.798 65.5792C110.191 65.396 110.473 65.0926 110.698 64.8503L113.492 61.8413C113.392 62.4213 113.357 63.0014 113.324 63.5662C113.294 64.0871 113.265 64.5813 113.186 65.0698C112.916 66.7718 112.071 68.0387 110.673 68.8382C108.59 70.0289 107.69 71.1833 106.664 73.0284C105.591 74.9594 104.346 76.9056 103.164 78.7317C101.046 82.006 98.6535 85.5627 95.6408 89.9284C95.2055 90.5573 94.7895 91.2202 94.3486 91.9223L94.3391 91.9376L94.3347 91.9447C93.2888 93.6081 92.2075 95.3281 90.8957 96.559C90.7771 96.6712 90.6696 96.7836 90.5674 96.89C90.5568 96.9013 90.5461 96.9124 90.5355 96.9234L90.5337 96.9253C89.9987 97.4888 89.7975 97.7006 88.1042 96.4598C86.8247 95.5239 84.9504 93.7703 82.9631 91.9111L82.9323 91.8823C81.2136 90.2737 79.4361 88.6118 77.8427 87.2819Z" fill="#80358F"/>
<path d="M73.5712 85.618C73.0153 80.4318 75.5856 72.1774 72.4848 67.9681C72.1677 67.5369 71.8251 67.1057 71.3631 66.8233C65.5296 63.2551 61.4931 68.8001 59.6295 73.6791C58.0125 77.9093 58.2122 81.8018 58.0928 86.2152C57.8911 93.653 56.1156 100.888 53.8488 107.958C53.0403 110.48 52.825 113.417 55.1134 113.8C58.2044 114.318 58.8699 110.606 61.818 109.648C64.5116 108.773 66.6884 109.311 69.6326 109.467C71.093 109.545 75.8616 108.609 75.5699 105.962C74.8808 99.6883 73.8453 94.2788 73.812 89.9093C73.8022 88.4916 73.7259 87.0548 73.5712 85.618Z" fill="#CF6BE3"/>
<path fill-rule="evenodd" clip-rule="evenodd" d="M55.0214 114.329C55.2582 114.367 55.4833 114.386 55.6967 114.386C57.326 114.386 58.3198 113.306 59.2845 112.258L59.3045 112.236L59.3121 112.228C60.0752 111.392 60.8625 110.531 61.9962 110.162C63.9478 109.527 65.6494 109.679 67.6161 109.854L67.6222 109.855L67.7281 109.864C68.3259 109.916 68.9475 109.971 69.6072 110.005C70.6897 110.063 73.8453 109.582 75.333 108.053C75.936 107.433 76.21 106.691 76.1239 105.907C75.8812 103.707 75.6012 101.638 75.3291 99.6367C74.8241 95.9217 74.3895 92.7142 74.368 89.9055C74.3562 88.4401 74.274 86.9785 74.1233 85.5646C73.9334 83.7996 74.1154 81.6625 74.3112 79.3995L74.3118 79.3934C74.6835 75.0468 75.0678 70.5542 72.935 67.6571C72.6061 67.2106 72.2107 66.7088 71.6587 66.3711C69.6678 65.1518 67.7181 64.8446 65.8643 65.4571C62.0647 66.7126 59.88 71.4943 59.1166 73.4921C57.7032 77.19 57.6445 80.6455 57.5838 84.3033C57.5813 84.4392 57.5787 84.5756 57.5764 84.7124C57.5674 85.2018 57.5584 85.6974 57.5447 86.2C57.3724 92.5711 56.0706 99.2322 53.3261 107.798C52.8896 109.16 52.2964 111.673 53.2478 113.188C53.6413 113.814 54.2364 114.197 55.0214 114.329ZM66.2167 66.4703C66.7119 66.3062 67.2189 66.2241 67.7377 66.2241C68.8104 66.2241 69.9262 66.5771 71.0695 67.2755C71.4531 67.5102 71.7566 67.8995 72.0365 68.2792C73.9338 70.853 73.5659 75.1431 73.2101 79.2957L73.2091 79.306L73.2073 79.3278C73.0102 81.6343 72.824 83.8131 73.0231 85.6714C73.1719 87.051 73.2521 88.4782 73.2619 89.9093C73.2854 92.7848 73.7239 96.0228 74.2329 99.7722L74.2397 99.8234C74.5077 101.801 74.7851 103.848 75.0237 106.015C75.0766 106.491 74.9161 106.914 74.5304 107.309C73.4048 108.465 70.7328 108.988 69.6639 108.929C68.9807 108.893 68.3367 108.836 67.7201 108.78C65.6255 108.593 63.8167 108.433 61.6458 109.137C60.2306 109.599 59.3008 110.618 58.4806 111.516L58.4804 111.517L58.478 111.519C57.4613 112.634 56.6587 113.514 55.2073 113.27C54.7434 113.192 54.4106 112.982 54.1874 112.627C53.6589 111.786 53.7274 110.141 54.3773 108.116C57.1531 99.4517 58.4686 92.7008 58.6448 86.2267C58.6624 85.5798 58.6742 84.9444 58.684 84.3186V84.3138C58.7446 80.7533 58.802 77.3888 60.1482 73.8641C60.8549 72.0095 62.8634 67.5789 66.2167 66.4703Z" fill="#80358F"/>
<path d="M78.3477 79.2182C78.3477 79.2182 72.0346 66.5905 68.0079 70.4906C63.9831 74.3907 73.3618 87.1253 73.3618 87.1253L79.8707 80.6283L78.3477 79.2182Z" fill="#CF6BE3"/>
<path fill-rule="evenodd" clip-rule="evenodd" d="M72.9173 87.4383L73.299 87.9573L80.6555 80.613L78.7978 78.8958C78.2928 77.9055 74.0977 69.8876 70.2354 69.2503C69.2567 69.0882 68.3777 69.3782 67.6221 70.1109C63.3135 74.2839 72.5238 86.904 72.9173 87.4383ZM68.3973 70.8703C68.8064 70.4734 69.2469 70.2788 69.7323 70.2788C69.8361 70.2788 69.9438 70.2883 70.0514 70.3055C72.9369 70.7806 76.6621 77.0697 77.8543 79.4529L79.0895 80.6417L73.4321 86.2877C70.7424 82.4887 65.5099 73.6676 68.3973 70.8703Z" fill="#80358F"/>
<path d="M78.0326 42.7394C79.5379 41.8998 79.9745 40.0032 80.1272 38.3183C80.2936 36.4885 80.2622 34.0156 78.6805 32.7257C78.0698 32.2277 77.322 31.9186 76.5585 31.6953C72.8176 30.5982 68.2937 30.9035 64.6566 32.2487C60.947 33.6206 58.1966 36.7518 56.8811 40.3466C56.2195 42.1536 55.8925 44.0789 55.9062 45.9965C55.9199 48.0229 56.8459 50.1313 55.2328 51.8066C55.8123 51.8085 56.3917 51.7379 56.9535 51.5967C54.9001 52.1119 51.5918 52.2226 51.5076 55.0886C51.4743 56.2296 52.2358 57.2237 52.8779 58.1797C53.52 59.1356 54.0877 60.3244 53.6413 61.3814C53.0795 62.7152 51.1278 63.2399 50.8753 64.6634C50.5758 66.3539 52.2143 67.1286 52.874 68.4452C53.7059 70.1052 52.9092 72.0362 52.7174 73.7573C52.5471 75.2838 53.9917 75.986 54.9353 76.898C57.67 79.5388 57.6328 82.5422 54.6436 85.4597C54.5829 85.5188 54.6064 85.6333 54.6495 85.7058C54.6945 85.7821 54.7924 85.8146 54.8805 85.8375C58.7467 86.822 63.7659 83.1833 64.6566 79.5522C65.0579 77.917 64.034 76.3867 64.4823 74.8163C64.8406 73.5608 66.1521 72.851 67.2836 72.1603C69.9106 70.5575 69.3899 66.4741 69.0552 63.4708C68.7635 60.851 69.4604 60.3511 67.9296 58.1797C67.1329 57.0501 66.5084 55.8136 65.9799 54.5428C65.2771 52.8523 64.4588 53.9838 64.5195 52.1615C64.5861 50.1619 65.602 48.3072 67.264 47.1356C68.1253 46.5289 69.1433 46.1033 70.1906 45.9202C71.3005 45.7255 72.432 45.5424 73.2953 44.781C74.1018 44.0693 75.2156 42.457 76.4646 42.5657C78.0228 42.7012 79.81 42.3215 80.6185 41.0183" fill="#80358F"/>
</g>
</svg>
